<svg viewBox="0 0 400 300" fill="none" xmlns="http://www.w3.org/2000/svg">
  <path
    fill-rule="evenodd"
    clip-rule="evenodd"
    d="m70.66 196.612 3.04 13.52-13.23-4.13 10.19-9.39Z"
    fill="#5578EC"
  />
  <path
    d="m73.7 210.132-3.04-13.52-10.19 9.39 13.23 4.13Z"
    stroke="#3351E5"
    stroke-width="2.126"
  />
  <path
    d="M65.84 203.277c-11.39-10.1-17.84-21.64-17.84-33.89 0-39.79 68.07-72.04 152.03-72.04 83.97 0 152.03 32.25 152.03 72.04 0 12.82-7.07 24.87-19.47 35.3"
    stroke="#31333A"
    stroke-width="2.126"
  />
  <path
    d="M125.452 252.76c-6.94-1.86-13.54-3.96-19.74-6.29-15.97-5.99-29.33-13.47-39.16-21.99-11.83-10.25-18.55-22.01-18.55-34.51 0-39.79 68.07-72.04 152.03-72.04 83.97 0 152.03 32.25 152.03 72.04 0 39.79-68.06 72.04-152.03 72.04-16.94 0-33.23-1.31-48.45-3.74"
    stroke="#31333A"
    stroke-width="2.126"
  />
  <path
    d="M238.644 239.084c-12.33 1.53-25.27 2.34-38.61 2.34-50.25 0-94.8-11.55-122.48-29.35"
    stroke="#31333A"
    stroke-width="2.126"
  />
  <path
    fill-rule="evenodd"
    clip-rule="evenodd"
    d="M249.193 232.08c-2.76 0-5 2.24-5 5s2.24 5 5 5 5-2.24 5-5-2.24-5-5-5Z"
    fill="#31333A"
  />
  <path
    fill-rule="evenodd"
    clip-rule="evenodd"
    d="M102.154 197.846v-82.26c0-4.11 6.14-7.44 13.72-7.44h148.67c7.58 0 13.73 3.33 13.73 7.44v82.26c0 4.11-6.15 7.44-13.73 7.44h-148.67c-7.58 0-13.72-3.33-13.72-7.44Z"
    fill="#fff"
  />
  <path
    d="M102.154 115.586v82.26c0 4.11 6.14 7.44 13.72 7.44h148.67c7.58 0 13.73-3.33 13.73-7.44v-82.26c0-4.11-6.15-7.44-13.73-7.44h-148.67c-7.58 0-13.72 3.33-13.72 7.44Z"
    stroke="#31333A"
    stroke-width="2.126"
  />
  <path
    fill-rule="evenodd"
    clip-rule="evenodd"
    d="M112.314 97.49h155.81c5.6 0 10.15 4.55 10.15 10.16v14.24h-176.12v-14.24c0-5.61 4.55-10.16 10.16-10.16Z"
    fill="#5578EC"
  />
  <path
    d="M268.124 97.49h-155.81c-5.61 0-10.16 4.55-10.16 10.16v14.24h176.12v-14.24c0-5.61-4.55-10.16-10.15-10.16Z"
    stroke="#3351E5"
    stroke-width="2.126"
  />
  <path
    fill-rule="evenodd"
    clip-rule="evenodd"
    d="M265.712 195.453c1.24 5.51 6.72 8.98 12.23 7.75l16.36-3.68c5.51-1.23 8.98-6.72 7.74-12.22l-2.79-12.47c-2.19-9.76-11.92-15.92-21.69-13.73l-.92.21c-9.76 2.19-15.92 11.92-13.73 21.68l2.8 12.46Zm28.167-6.323-2.8-12.46c-1.18-5.25-6.42-8.57-11.68-7.39l-.92.2c-5.25 1.18-8.57 6.42-7.39 11.68l2.8 12.46c.22.98 1.23 1.63 2.22 1.41l16.36-3.68c.98-.22 1.63-1.23 1.41-2.22Z"
    fill="#686A6D"
  />
  <path
    d="M265.712 195.453c1.24 5.51 6.72 8.98 12.23 7.75l16.36-3.68c5.51-1.23 8.98-6.72 7.74-12.22l-2.79-12.47c-2.19-9.76-11.92-15.92-21.69-13.73l-.92.21c-9.76 2.19-15.92 11.92-13.73 21.68l2.8 12.46Zm28.167-6.323-2.8-12.46c-1.18-5.25-6.42-8.57-11.68-7.39l-.92.2c-5.25 1.18-8.57 6.42-7.39 11.68l2.8 12.46c.22.98 1.23 1.63 2.22 1.41l16.36-3.68c.98-.22 1.63-1.23 1.41-2.22Z"
    stroke="#31333A"
    stroke-width="2.126"
  />
  <path
    fill-rule="evenodd"
    clip-rule="evenodd"
    d="m285.415 228.924 13.124-2.947c10.888-2.444 17.729-13.245 15.284-24.134l-3.446-15.348a4.468 4.468 0 0 0-5.34-3.382l-43.82 9.838a4.468 4.468 0 0 0-3.382 5.34l3.446 15.348c2.445 10.889 13.245 17.729 24.134 15.285Z"
    fill="#5578EC"
  />
  <path
    d="m310.672 182.937-52.546 11.797 8.385 37.348 52.546-11.797-8.385-37.348Z"
    stroke="#3351E5"
    stroke-width="2.126"
  />
  <path
    fill-rule="evenodd"
    clip-rule="evenodd"
    d="M286.765 194.724c-3.82 0-6.92 3.1-6.92 6.92s3.1 6.92 6.92 6.92 6.92-3.1 6.92-6.92-3.1-6.92-6.92-6.92Z"
    fill="#31333A"
  />
  <path
    fill-rule="evenodd"
    clip-rule="evenodd"
    d="m288.891 203.001 3.21 10.45c.32 1.41-.57 2.82-1.98 3.13-1.42.32-2.82-.57-3.14-1.98l-1.56-10.82 3.47-.78Z"
    fill="#31333A"
  />
  <path
    d="m144.481 167.653-1.15 2.01c-.34.58-.68 1.2-.64 1.87.05.67.67 1.34 1.32 1.16"
    stroke="#31333A"
    stroke-width=".425"
  />
  <path
    fill-rule="evenodd"
    clip-rule="evenodd"
    d="M186.839 142.49h67.25v-9.57h-67.25v9.57Z"
    fill="#AFAEB4"
  />
  <path
    fill-rule="evenodd"
    clip-rule="evenodd"
    d="M186.839 155.631h67.25v-6.3h-67.25v6.3ZM186.839 168.529h67.25v-6.3h-67.25v6.3ZM186.839 181.426h47.55v-6.3h-47.55v6.3Z"
    fill="#D7D9DD"
  />
  <path
    fill-rule="evenodd"
    clip-rule="evenodd"
    d="M201.174 116.591h-21.91c-2.79 0-5.05-2.26-5.05-5.05v-15.43h32v15.43c0 2.79-2.26 5.05-5.04 5.05Z"
    fill="#3351E5"
  />
  <path
    fill-rule="evenodd"
    clip-rule="evenodd"
    d="M184.268 75.95h11.75c.76 0 1.5-.3 2.04-.84s.84-1.28.84-2.04v-6.19c0-.76-.3-1.5-.84-2.04s-1.28-.84-2.04-.84h-11.75c-.76 0-1.5.3-2.04.84s-.84 1.28-.84 2.04v6.19c0 .76.3 1.5.84 2.04s1.28.84 2.04.84Z"
    fill="#686A6D"
  />
  <path
    d="M199.958 65.064h-17.507v9.822h17.507v-9.822Z"
    stroke="#31333A"
    stroke-width="2.126"
  />
  <path
    fill-rule="evenodd"
    clip-rule="evenodd"
    d="M181.337 111.919h17.62a2.6 2.6 0 0 0 2.59-2.6v-33.31a2.6 2.6 0 0 0-2.59-2.6h-17.62a2.595 2.595 0 0 0-2.6 2.6v33.31a2.595 2.595 0 0 0 2.6 2.6Z"
    fill="#DCDDDD"
  />
  <path
    d="M202.613 74.473H179.8v36.381h22.813V74.473Z"
    stroke="#31333A"
    stroke-width="2.126"
  />
  <path
    fill-rule="evenodd"
    clip-rule="evenodd"
    d="M143.589 126.485c-17.43 0-31.56 14.13-31.56 31.56 0 17.42 14.13 31.55 31.56 31.55 17.42 0 31.55-14.13 31.55-31.55 0-17.43-14.13-31.56-31.55-31.56Z"
    fill="#D7D9DD"
  />
  <path
    fill-rule="evenodd"
    clip-rule="evenodd"
    d="M183.536 100.461a6.61 6.61 0 0 1 6.61-6.61v13.22a6.61 6.61 0 0 1-6.61-6.61Z"
    fill="#5578EC"
  />
  <path
    d="M190.146 93.85a6.61 6.61 0 0 0 0 13.221v-13.22Z"
    stroke="#3351E5"
    stroke-width="2.126"
  />
  <path
    fill-rule="evenodd"
    clip-rule="evenodd"
    d="M190.144 93.85a6.61 6.61 0 0 1 0 13.221v-13.22Z"
    fill="#5578EC"
  />
  <path
    d="M196.754 100.461a6.61 6.61 0 0 0-6.61-6.61v13.22a6.61 6.61 0 0 0 6.61-6.61Z"
    stroke="#3351E5"
    stroke-width="2.126"
  />
  <path
    fill-rule="evenodd"
    clip-rule="evenodd"
    d="M160.252 171.477c-3.64 4.61-9.57 7.62-16.26 7.62-1.78 0-3.51-.22-5.16-.62-.26-.06-.5-.13-.75-.2-.02 0-.04-.01-.06-.01a21.012 21.012 0 0 1-11.09-7.89c-.04-.05-.07-.1-.11-.16-1.84-2.78-2.9-6.06-2.9-9.55 0-1.21.13-2.39.37-3.54 2.45.71 5 1.07 7.56 1.06 5.54 0 10.57-1.62 14.3-4.25 1.92-1.32 3.54-3.03 4.76-5.02.01-.01.01-.02.02-.04.21-.31.63-.38.94-.17 7.38 5.02 10.73 14.17 8.38 22.77Z"
    fill="#fff"
  />
  <path
    d="M143.992 179.097c6.69 0 12.62-3.01 16.26-7.62 2.35-8.6-1-17.75-8.38-22.77a.674.674 0 0 0-.94.17c-.01.02-.01.03-.02.04-1.22 1.99-2.84 3.7-4.76 5.02-3.73 2.63-8.76 4.25-14.3 4.25-2.56.01-5.11-.35-7.56-1.06-.24 1.15-.37 2.33-.37 3.54 0 3.49 1.06 6.77 2.9 9.55.04.06.07.11.11.16 2.68 3.73 6.56 6.55 11.09 7.89.02 0 .04.01.06.01.25.07.49.14.75.2 1.65.4 3.38.62 5.16.62Z"
    stroke="#31333A"
    stroke-width="1.417"
  />
  <path
    fill-rule="evenodd"
    clip-rule="evenodd"
    d="M125.008 149.562c4.87-10.06 16.71-14.61 27.06-10.41 7.9 3.2 13.08 10.87 13.1 19.4 0 4.95-1.76 9.74-4.98 13.51 2.42-8.46-.72-17.51-7.85-22.66-.02-.02-.04-.03-.06-.04-.55-.36-1.28-.2-1.64.36-1.19 1.8-2.71 3.36-4.49 4.58-3.73 2.63-8.76 4.25-14.3 4.25-1.03 0-2.07-.06-3.1-.18-.95 2.63-1.44 5.4-1.43 8.2-.01 1.77.19 3.53.57 5.25a20.777 20.777 0 0 1-5.13-14.84c-.49-.17-.98-.36-1.45-.57a25.9 25.9 0 0 1-1.67-.82c-.47-.26-.84-.67-1.05-1.16-.55-1.24.02-2.69 1.26-3.23 1.66-.74 3.39-1.29 5.16-1.64Z"
    fill="#31333A"
  />
  <path
    d="M152.068 139.152c-10.35-4.2-22.19.35-27.06 10.41-1.77.35-3.5.9-5.16 1.64a2.445 2.445 0 0 0-1.26 3.23c.21.49.58.9 1.05 1.16.54.29 1.09.56 1.67.82.47.21.96.4 1.45.57a20.777 20.777 0 0 0 5.13 14.84 23.72 23.72 0 0 1-.57-5.25c-.01-2.8.48-5.57 1.43-8.2 1.03.12 2.07.18 3.1.18 5.54 0 10.57-1.62 14.3-4.25 1.78-1.22 3.3-2.78 4.49-4.58.36-.56 1.09-.72 1.64-.36.02.01.04.02.06.04a20.861 20.861 0 0 1 7.85 22.66c3.22-3.77 4.98-8.56 4.98-13.51-.02-8.53-5.2-16.2-13.1-19.4Z"
    stroke="#31333A"
    stroke-width=".709"
  />
  <path
    d="M138.049 166.896c0-1-.8-1.8-1.79-1.8-1 0-1.8.8-1.8 1.8M153.378 166.896c0-1-.8-1.8-1.79-1.8-1 0-1.8.8-1.8 1.8"
    stroke="#31333A"
    stroke-width="1.417"
  />
  <path
    d="M143.992 142.231c-11.08 0-20.07 8.25-20.07 18.43s8.99 18.43 20.07 18.43c11.09 0 20.08-8.25 20.08-18.43s-8.99-18.43-20.08-18.43Z"
    stroke="#31333A"
    stroke-width="1.417"
  />
  <path
    fill-rule="evenodd"
    clip-rule="evenodd"
    d="M123.049 154.826a3.726 3.726 0 0 0 0 7.45 3.73 3.73 0 0 0 3.73-3.73c0-2.05-1.67-3.72-3.73-3.72Z"
    fill="#31333A"
  />
  <path
    fill-rule="evenodd"
    clip-rule="evenodd"
    d="M143.995 175.298c1.56 0 2.83-1.1 2.83-2.47h-5.66c0 1.37 1.27 2.47 2.83 2.47Z"
    fill="#fff"
  />
  <path
    d="M143.995 175.298c1.56 0 2.83-1.1 2.83-2.47h-5.66c0 1.37 1.27 2.47 2.83 2.47Z"
    stroke="#31333A"
    stroke-width="1.5"
  />
  <path
    fill-rule="evenodd"
    clip-rule="evenodd"
    d="m316.12 134.275-7.16 1.19c-1.12.19-1.97-1-1.44-2l3.42-6.41c.21-.4.21-.87 0-1.28l-3.34-6.44c-.52-1.01.34-2.18 1.46-1.99l7.15 1.27c.44.08.9-.07 1.22-.39l5.09-5.17c.8-.81 2.18-.35 2.34.78l1.01 7.18c.06.45.34.84.74 1.04l6.49 3.25c1.02.51 1.01 1.97-.01 2.47l-6.52 3.17c-.41.2-.7.59-.76 1.03l-1.09 7.18c-.17 1.13-1.55 1.57-2.35.75l-5.03-5.22c-.32-.33-.77-.48-1.22-.41Z"
    fill="#fff"
  />
  <path
    d="m308.96 135.465 7.16-1.19c.45-.07.9.08 1.22.41l5.03 5.22c.8.82 2.18.38 2.35-.75l1.09-7.18c.06-.44.35-.83.76-1.03l6.52-3.17c1.02-.5 1.03-1.96.01-2.47l-6.49-3.25c-.4-.2-.68-.59-.74-1.04l-1.01-7.18c-.16-1.13-1.54-1.59-2.34-.78l-5.09 5.17c-.32.32-.78.47-1.22.39l-7.15-1.27c-1.12-.19-1.98.98-1.46 1.99l3.34 6.44c.21.41.21.88 0 1.28l-3.42 6.41c-.53 1 .32 2.19 1.44 2Z"
    stroke="#31333A"
    stroke-width="2.126"
  />
  <path
    fill-rule="evenodd"
    clip-rule="evenodd"
    d="M138.052 250.496c-2.76 0-5 2.24-5 5s2.24 5 5 5 5-2.24 5-5-2.24-5-5-5Z"
    fill="#fff"
  />
  <path
    d="M138.052 250.496c-2.76 0-5 2.24-5 5s2.24 5 5 5 5-2.24 5-5-2.24-5-5-5Z"
    stroke="#31333A"
    stroke-width="2.126"
  />
  <path
    fill-rule="evenodd"
    clip-rule="evenodd"
    d="M153.384 131.631c-3.95 0-7.15 3.2-7.15 7.15 0 3.94 3.2 7.14 7.15 7.14 3.94 0 7.14-3.2 7.14-7.14 0-3.95-3.2-7.15-7.14-7.15Z"
    fill="#31333A"
  />
  <path
    d="m81.614 106.969 8.38 5.73M92.944 89.777l6.25 8M112.25 79.528l.51 10.14"
    stroke="#31333A"
    stroke-width="2"
  />
</svg>
