<svg height="809" node-id="1" sillyvg="true" template-height="809" template-width="1448" version="1.1" viewBox="0 0 1448 809" width="1448" xmlns="http://www.w3.org/2000/svg" xmlns:xlink="http://www.w3.org/1999/xlink"><defs node-id="110"><mask height="1.2" id="mask-6" node-id="39" width="1.2" x="-0.1" y="-0.1"><path d="M 85.25 162.07 L 431.36 1.59 C 446.71 -2.79 453.14 1.86 450.64 15.55 C 448.13 29.23 426.34 184.03 385.26 479.95 L -0.00 536.41 C 34.03 330.99 52.97 219.86 56.80 203.01 C 60.96 182.63 70.44 168.98 85.25 162.07 Z" fill="#ffffff" fill-rule="evenodd" node-id="115" stroke="none" target-height="536.40643" target-width="451.13992" target-x="-0" target-y="0.003873527"></path></mask><mask height="1.2" id="mask-10" node-id="73" width="1.2" x="-0.1" y="-0.1"><path d="M 14.88 114.84 C 25.77 137.73 44.11 183.24 129.62 260.57 C 159.66 254.91 179.37 243.20 188.73 225.42 C 171.03 138.51 149.68 80.13 124.70 50.29 C 87.22 5.53 44.06 -8.36 20.95 5.23 C -2.16 18.82 -7.06 64.51 14.88 114.84 Z" fill="#ffffff" fill-rule="evenodd" node-id="122" stroke="none" target-height="260.32236" target-width="187.94641" target-x="0.7828225" target-y="0.24392045"></path></mask><mask height="1.2" id="mask-6_4" node-id="39" width="1.2" x="-0.1" y="-0.1"><path d="M 694.32 200.06 L 1040.43 39.58 L 1045.59 38.39 L 1049.63 37.99 L 1052.75 38.20 L 1055.17 38.89 L 1057.02 39.98 L 1058.44 41.47 L 1059.47 43.43 L 1060.08 45.97 L 1060.21 49.27 L 1059.71 53.53 L 1056.18 76.70 L 1039.90 191.16 L 994.33 517.93 L 609.07 574.39 L 639.47 392.10 L 655.74 296.53 L 663.20 254.54 L 665.87 241.00 L 667.61 233.93 L 669.73 227.63 L 672.21 222.03 L 675.04 217.07 L 678.20 212.68 L 681.69 208.81 L 685.52 205.44 L 689.72 202.52 L 694.32 200.06 Z" fill="#ffffff" fill-rule="evenodd" node-id="115" stroke="none" target-height="536.4064" target-width="451.1399" target-x="609.07117" target-y="37.9876"></path></mask><mask height="1.2" id="mask-6_5" node-id="39" width="1.2" x="-0.1" y="-0.1"><path d="M 694.32 200.06 L 1040.43 39.58 L 1045.59 38.39 L 1049.63 37.99 L 1052.75 38.20 L 1055.17 38.89 L 1057.02 39.98 L 1058.44 41.47 L 1059.47 43.43 L 1060.08 45.97 L 1060.21 49.27 L 1059.71 53.53 L 1056.18 76.70 L 1039.90 191.16 L 994.33 517.93 L 609.07 574.39 L 639.47 392.10 L 655.74 296.53 L 663.20 254.54 L 665.87 241.00 L 667.61 233.93 L 669.73 227.63 L 672.21 222.03 L 675.04 217.07 L 678.20 212.68 L 681.69 208.81 L 685.52 205.44 L 689.72 202.52 L 694.32 200.06 Z" fill="#ffffff" fill-rule="evenodd" node-id="115" stroke="none" target-height="536.4064" target-width="451.1399" target-x="609.07117" target-y="37.9876"></path></mask><mask height="1.2" id="mask-6_6" node-id="39" width="1.2" x="-0.1" y="-0.1"><path d="M 694.32 200.06 L 1040.43 39.58 L 1045.59 38.39 L 1049.63 37.99 L 1052.75 38.20 L 1055.17 38.89 L 1057.02 39.98 L 1058.44 41.47 L 1059.47 43.43 L 1060.08 45.97 L 1060.21 49.27 L 1059.71 53.53 L 1056.18 76.70 L 1039.90 191.16 L 994.33 517.93 L 609.07 574.39 L 639.47 392.10 L 655.74 296.53 L 663.20 254.54 L 665.87 241.00 L 667.61 233.93 L 669.73 227.63 L 672.21 222.03 L 675.04 217.07 L 678.20 212.68 L 681.69 208.81 L 685.52 205.44 L 689.72 202.52 L 694.32 200.06 Z" fill="#ffffff" fill-rule="evenodd" node-id="115" stroke="none" target-height="536.4064" target-width="451.1399" target-x="609.07117" target-y="37.9876"></path></mask><mask height="1.2" id="mask-10_4" node-id="73" width="1.2" x="-0.1" y="-0.1"><path d="M 255.88 391.84 L 262.22 405.21 L 266.21 413.09 L 271.46 422.61 L 277.46 432.54 L 285.26 444.29 L 290.90 452.16 L 297.54 460.88 L 305.29 470.50 L 313.28 479.90 L 322.54 490.22 L 333.18 501.51 L 344.08 512.53 L 356.52 524.53 L 370.62 537.57 L 379.54 535.64 L 387.56 533.40 L 394.76 530.88 L 401.21 528.11 L 406.97 525.10 L 412.09 521.87 L 416.62 518.43 L 420.62 514.77 L 424.12 510.88 L 427.15 506.78 L 429.73 502.42 L 424.29 477.10 L 418.81 454.24 L 413.32 433.68 L 407.83 415.26 L 402.37 398.81 L 396.94 384.20 L 391.56 371.26 L 386.23 359.88 L 380.98 349.91 L 375.81 341.23 L 370.71 333.73 L 365.70 327.29 L 358.33 318.99 L 351.09 311.62 L 343.96 305.13 L 336.93 299.45 L 329.37 294.07 L 322.12 289.56 L 315.15 285.85 L 308.44 282.88 L 301.32 280.37 L 294.68 278.63 L 288.47 277.61 L 282.64 277.24 L 277.82 277.42 L 273.39 278.02 L 269.28 279.04 L 265.48 280.44 L 261.95 282.23 L 258.67 284.48 L 255.65 287.17 L 252.87 290.33 L 250.34 294.01 L 248.23 297.88 L 246.38 302.18 L 244.80 306.93 L 243.51 312.19 L 242.62 317.41 L 242.04 323.00 L 241.78 329.00 L 241.88 335.43 L 242.54 343.87 L 243.85 352.85 L 245.86 362.42 L 248.45 371.84 L 251.77 381.63 L 255.88 391.84 Z" fill="#ffffff" fill-rule="evenodd" node-id="122" stroke="none" target-height="260.32236" target-width="187.94643" target-x="241.78282" target-y="277.24393"></path></mask><mask height="1.2" id="mask-10_5" node-id="73" width="1.2" x="-0.1" y="-0.1"><path d="M 255.88 391.84 L 262.22 405.21 L 266.21 413.09 L 271.46 422.61 L 277.46 432.54 L 285.26 444.29 L 290.90 452.16 L 297.54 460.88 L 305.29 470.50 L 313.28 479.90 L 322.54 490.22 L 333.18 501.51 L 344.08 512.53 L 356.52 524.53 L 370.62 537.57 L 379.54 535.64 L 387.56 533.40 L 394.76 530.88 L 401.21 528.11 L 406.97 525.10 L 412.09 521.87 L 416.62 518.43 L 420.62 514.77 L 424.12 510.88 L 427.15 506.78 L 429.73 502.42 L 424.29 477.10 L 418.81 454.24 L 413.32 433.68 L 407.83 415.26 L 402.37 398.81 L 396.94 384.20 L 391.56 371.26 L 386.23 359.88 L 380.98 349.91 L 375.81 341.23 L 370.71 333.73 L 365.70 327.29 L 358.33 318.99 L 351.09 311.62 L 343.96 305.13 L 336.93 299.45 L 329.37 294.07 L 322.12 289.56 L 315.15 285.85 L 308.44 282.88 L 301.32 280.37 L 294.68 278.63 L 288.47 277.61 L 282.64 277.24 L 277.82 277.42 L 273.39 278.02 L 269.28 279.04 L 265.48 280.44 L 261.95 282.23 L 258.67 284.48 L 255.65 287.17 L 252.87 290.33 L 250.34 294.01 L 248.23 297.88 L 246.38 302.18 L 244.80 306.93 L 243.51 312.19 L 242.62 317.41 L 242.04 323.00 L 241.78 329.00 L 241.88 335.43 L 242.54 343.87 L 243.85 352.85 L 245.86 362.42 L 248.45 371.84 L 251.77 381.63 L 255.88 391.84 Z" fill="#ffffff" fill-rule="evenodd" node-id="122" stroke="none" target-height="260.32236" target-width="187.94643" target-x="241.78282" target-y="277.24393"></path></mask><mask height="1.2" id="mask-10_6" node-id="73" width="1.2" x="-0.1" y="-0.1"><path d="M 255.88 391.84 L 262.22 405.21 L 266.21 413.09 L 271.46 422.61 L 277.46 432.54 L 285.26 444.29 L 290.90 452.16 L 297.54 460.88 L 305.29 470.50 L 313.28 479.90 L 322.54 490.22 L 333.18 501.51 L 344.08 512.53 L 356.52 524.53 L 370.62 537.57 L 379.54 535.64 L 387.56 533.40 L 394.76 530.88 L 401.21 528.11 L 406.97 525.10 L 412.09 521.87 L 416.62 518.43 L 420.62 514.77 L 424.12 510.88 L 427.15 506.78 L 429.73 502.42 L 424.29 477.10 L 418.81 454.24 L 413.32 433.68 L 407.83 415.26 L 402.37 398.81 L 396.94 384.20 L 391.56 371.26 L 386.23 359.88 L 380.98 349.91 L 375.81 341.23 L 370.71 333.73 L 365.70 327.29 L 358.33 318.99 L 351.09 311.62 L 343.96 305.13 L 336.93 299.45 L 329.37 294.07 L 322.12 289.56 L 315.15 285.85 L 308.44 282.88 L 301.32 280.37 L 294.68 278.63 L 288.47 277.61 L 282.64 277.24 L 277.82 277.42 L 273.39 278.02 L 269.28 279.04 L 265.48 280.44 L 261.95 282.23 L 258.67 284.48 L 255.65 287.17 L 252.87 290.33 L 250.34 294.01 L 248.23 297.88 L 246.38 302.18 L 244.80 306.93 L 243.51 312.19 L 242.62 317.41 L 242.04 323.00 L 241.78 329.00 L 241.88 335.43 L 242.54 343.87 L 243.85 352.85 L 245.86 362.42 L 248.45 371.84 L 251.77 381.63 L 255.88 391.84 Z" fill="#ffffff" fill-rule="evenodd" node-id="122" stroke="none" target-height="260.32236" target-width="187.94643" target-x="241.78282" target-y="277.24393"></path></mask></defs><g node-id="212"><g node-id="213"><g node-id="214"><path d="M 425.82 227.87 L 441.91 231.31 L 463.35 235.69 L 488.29 240.65 L 514.91 245.86 L 541.36 250.96 L 565.79 255.59 L 586.37 259.43 L 601.26 262.10 L 605.06 263.02 L 608.36 264.24 L 611.23 265.74 L 613.72 267.52 L 616.01 269.65 L 617.89 271.92 L 619.40 274.31 L 620.57 276.87 L 621.60 280.47 L 621.99 284.05 L 621.76 287.66 L 621.17 290.31 L 620.23 292.81 L 618.92 295.17 L 617.24 297.43 L 615.28 299.38 L 612.95 301.07 L 610.20 302.51 L 606.97 303.69 L 603.72 304.40 L 600.01 304.72 L 595.76 304.60 L 590.88 303.97 L 574.10 300.84 L 574.10 317.20 L 560.28 298.26 L 534.49 293.44 L 506.56 288.20 L 478.58 282.95 L 452.61 278.05 L 430.75 273.90 L 415.06 270.88 L 410.91 269.74 L 407.40 268.19 L 404.46 266.27 L 401.85 263.90 L 399.77 261.31 L 398.16 258.48 L 396.98 255.43 L 396.27 252.32 L 396.00 249.11 L 396.18 245.90 L 396.79 242.80 L 397.84 239.77 L 399.32 236.93 L 401.20 234.37 L 403.53 232.05 L 406.19 230.14 L 409.29 228.63 L 412.90 227.55 L 415.66 227.12 L 418.70 227.00 L 422.08 227.24 L 425.82 227.87 Z" fill="#fec047" fill-rule="evenodd" group-id="1,2,3" id="形状结合" node-id="16" stroke="none" target-height="90.20305" target-width="225.99255" target-x="396.00214" target-y="227.00102"></path><path d="M 436.93 249.55 L 436.69 252.08 L 436.04 254.40 L 434.99 256.56 L 433.57 258.50 L 431.88 260.15 L 429.88 261.53 L 427.68 262.56 L 425.29 263.19 L 422.69 263.43 L 420.09 263.19 L 417.71 262.56 L 415.51 261.53 L 413.51 260.15 L 411.81 258.50 L 410.40 256.56 L 409.35 254.40 L 408.70 252.08 L 408.46 249.55 L 408.70 247.02 L 409.35 244.70 L 410.40 242.55 L 411.81 240.60 L 413.51 238.95 L 415.51 237.57 L 417.71 236.54 L 420.09 235.91 L 422.69 235.67 L 425.29 235.91 L 427.68 236.54 L 429.88 237.57 L 431.88 238.95 L 433.57 240.60 L 434.99 242.55 L 436.04 244.70 L 436.69 247.02 L 436.93 249.55 Z" fill="#ffffff" fill-rule="evenodd" group-id="1,2,3" id="椭圆形" node-id="17" stroke="none" target-height="27.755096" target-width="28.472443" target-x="408.4567" target-y="235.67346"></path><path d="M 452.42 244.45 L 475.70 249.04 L 500.60 253.99 L 525.39 258.96 L 548.35 263.58 L 567.76 267.51 L 581.87 270.41 L 588.98 271.91 L 590.68 272.47 L 591.87 273.11 L 592.66 273.82 L 593.41 275.13 L 593.49 276.38 L 593.04 277.54 L 592.07 278.47 L 590.76 278.97 L 588.98 278.95 L 583.24 277.83 L 570.64 275.36 L 553.11 271.90 L 532.57 267.85 L 510.97 263.58 L 490.22 259.48 L 472.26 255.91 L 459.01 253.27 L 452.42 251.93 L 450.52 251.33 L 449.24 250.65 L 448.43 249.90 L 447.85 248.96 L 447.61 248.07 L 447.68 247.17 L 448.24 245.93 L 449.30 244.95 L 450.69 244.41 L 452.42 244.45 Z" fill="#ffffff" fill-rule="evenodd" group-id="1,2,3" id="路径-369" node-id="18" stroke="none" target-height="34.5549" target-width="145.88339" target-x="447.6113" target-y="244.41486"></path><path d="M 448.86 258.33 L 472.14 262.92 L 497.04 267.87 L 521.83 272.83 L 544.79 277.46 L 564.20 281.39 L 578.31 284.29 L 585.42 285.79 L 587.12 286.34 L 588.31 286.99 L 589.10 287.70 L 589.85 289.01 L 589.94 290.26 L 589.48 291.42 L 588.52 292.35 L 587.20 292.85 L 585.42 292.83 L 579.68 291.71 L 567.08 289.23 L 549.55 285.78 L 529.02 281.73 L 507.41 277.46 L 486.66 273.35 L 468.70 269.79 L 455.46 267.15 L 448.86 265.80 L 446.96 265.21 L 445.68 264.53 L 444.87 263.78 L 444.29 262.84 L 444.05 261.94 L 444.12 261.05 L 444.68 259.81 L 445.74 258.83 L 447.13 258.29 L 448.86 258.33 Z" fill="#ffffff" fill-rule="evenodd" group-id="1,2,3" id="路径-369备份" node-id="19" stroke="none" target-height="34.5549" target-width="145.88342" target-x="444.05225" target-y="258.29242"></path><path d="M 425.03 309.26 L 440.80 312.44 L 462.23 316.61 L 487.39 321.44 L 514.36 326.55 L 541.21 331.61 L 565.99 336.25 L 586.79 340.12 L 601.66 342.88 L 605.39 343.82 L 608.64 345.07 L 611.47 346.58 L 613.92 348.36 L 616.16 350.49 L 618.01 352.74 L 619.49 355.12 L 620.63 357.64 L 621.63 361.21 L 622.00 364.74 L 621.75 368.29 L 621.15 370.90 L 620.21 373.35 L 618.91 375.66 L 617.24 377.86 L 615.30 379.76 L 612.99 381.40 L 610.27 382.79 L 607.08 383.91 L 603.87 384.57 L 600.21 384.85 L 596.02 384.68 L 591.21 384.00 L 574.32 380.74 L 574.31 397.00 L 560.16 378.08 L 534.50 373.31 L 506.72 368.21 L 478.86 363.12 L 452.97 358.39 L 431.10 354.39 L 415.29 351.47 L 411.50 350.49 L 408.26 349.22 L 405.49 347.68 L 403.14 345.89 L 401.02 343.73 L 399.30 341.46 L 397.96 339.04 L 396.98 336.47 L 396.19 332.88 L 396.01 329.29 L 396.44 325.66 L 397.45 322.16 L 399.02 318.92 L 401.17 315.90 L 403.10 313.92 L 405.33 312.22 L 407.89 310.78 L 410.82 309.62 L 413.80 308.89 L 417.12 308.55 L 420.85 308.66 L 425.03 309.26 Z" fill="#57e4c3" fill-rule="evenodd" group-id="1,2,3" id="形状结合备份-3" node-id="20" stroke="none" target-height="88.44696" target-width="225.98587" target-x="396.01096" target-y="308.55304"></path><path d="M 442.27 332.82 L 442.03 335.35 L 441.38 337.67 L 440.32 339.82 L 438.91 341.76 L 437.22 343.42 L 435.22 344.80 L 433.01 345.82 L 430.63 346.46 L 428.03 346.69 L 425.43 346.46 L 423.05 345.82 L 420.85 344.80 L 418.84 343.42 L 417.15 341.76 L 415.74 339.82 L 414.69 337.67 L 414.04 335.35 L 413.80 332.82 L 414.04 330.29 L 414.69 327.96 L 415.74 325.81 L 417.15 323.87 L 418.84 322.22 L 420.85 320.83 L 423.05 319.81 L 425.43 319.18 L 428.03 318.94 L 430.63 319.18 L 433.01 319.81 L 435.22 320.83 L 437.22 322.22 L 438.91 323.87 L 440.32 325.81 L 441.38 327.96 L 442.03 330.29 L 442.27 332.82 Z" fill="#ffffff" fill-rule="evenodd" group-id="1,2,3" id="椭圆形备份-23" node-id="21" stroke="none" target-height="27.755096" target-width="28.472412" target-x="413.7953" target-y="318.93878"></path><path d="M 457.76 327.72 L 481.04 332.31 L 505.94 337.26 L 530.73 342.22 L 553.69 346.85 L 573.09 350.78 L 587.21 353.67 L 594.32 355.18 L 596.02 355.73 L 597.20 356.37 L 598.00 357.09 L 598.74 358.39 L 598.83 359.65 L 598.38 360.81 L 597.41 361.73 L 596.10 362.24 L 594.32 362.21 L 588.58 361.10 L 575.98 358.62 L 558.45 355.17 L 537.91 351.12 L 516.31 346.85 L 495.56 342.74 L 477.60 339.18 L 464.35 336.53 L 457.76 335.19 L 455.86 334.60 L 454.58 333.92 L 453.76 333.17 L 453.19 332.23 L 452.95 331.33 L 453.01 330.43 L 453.57 329.20 L 454.64 328.21 L 456.03 327.68 L 457.76 327.72 Z" fill="#ffffff" fill-rule="evenodd" group-id="1,2,3" id="路径-369备份-2" node-id="22" stroke="none" target-height="34.5549" target-width="145.88336" target-x="452.9499" target-y="327.68018"></path><path d="M 454.20 341.60 L 477.48 346.18 L 502.38 351.13 L 527.17 356.10 L 550.13 360.72 L 569.54 364.66 L 583.65 367.55 L 590.76 369.05 L 592.46 369.61 L 593.65 370.25 L 594.44 370.96 L 595.19 372.27 L 595.27 373.53 L 594.82 374.69 L 593.85 375.61 L 592.54 376.11 L 590.76 376.09 L 585.02 374.97 L 572.42 372.50 L 554.89 369.05 L 534.35 365.00 L 512.75 360.73 L 492.00 356.62 L 474.04 353.05 L 460.79 350.41 L 454.20 349.07 L 452.30 348.48 L 451.02 347.79 L 450.21 347.04 L 449.63 346.11 L 449.39 345.21 L 449.45 344.31 L 450.02 343.07 L 451.08 342.09 L 452.47 341.56 L 454.20 341.60 Z" fill="#ffffff" fill-rule="evenodd" group-id="1,2,3" id="路径-369备份-3" node-id="23" stroke="none" target-height="34.55493" target-width="145.88339" target-x="449.39084" target-y="341.5577"></path></g><g node-id="215"><g node-id="219"><g node-id="224"><path d="M 1016.08 489.63 L 1032.12 484.06 L 1047.24 479.42 L 1061.48 475.66 L 1074.89 472.73 L 1087.53 470.55 L 1099.43 469.09 L 1110.64 468.31 L 1121.22 468.14 L 1131.19 468.57 L 1140.60 469.56 L 1149.49 471.09 L 1157.90 473.12 L 1165.85 475.64 L 1173.39 478.65 L 1180.54 482.14 L 1187.32 486.12 L 1193.77 490.58 L 1199.89 495.54 L 1205.70 501.03 L 1211.22 507.05 L 1216.44 513.66 L 1221.37 520.87 L 1228.23 519.11 L 1234.52 518.04 L 1240.31 517.60 L 1245.65 517.73 L 1250.59 518.39 L 1255.19 519.55 L 1259.48 521.21 L 1263.50 523.36 L 1267.28 526.01 L 1270.84 529.21 L 1274.20 533.00 L 1277.35 537.43 L 1280.30 542.58 L 1283.02 548.52 L 1285.49 555.34 L 1294.44 554.80 L 1302.65 554.86 L 1310.19 555.47 L 1317.13 556.59 L 1323.50 558.18 L 1329.37 560.22 L 1334.77 562.69 L 1339.75 565.59 L 1344.34 568.92 L 1348.57 572.70 L 1352.46 576.94 L 1356.01 581.69 L 1359.23 586.97 L 1362.11 592.85 L 1364.65 599.36 L 1366.82 606.56 L 1368.59 614.54 L 1369.93 623.34 L 1370.80 633.05 L 808.67 634.55 L 1016.08 489.63 Z" fill="#96dbff" fill-rule="evenodd" group-id="1,2,4,8,13" node-id="143" stroke="none" target-height="166.40933" target-width="562.1282" target-x="808.6719" target-y="468.14438"></path></g></g><g node-id="220"><g node-id="225"><path d="M 578.95 737.97 L 1407.99 720.52 L 1407.92 712.56 L 1407.30 705.59 L 1406.18 699.50 L 1404.61 694.20 L 1402.65 689.59 L 1400.31 685.59 L 1397.61 682.13 L 1394.53 679.16 L 1391.05 676.64 L 1387.12 674.57 L 1382.70 672.94 L 1382.86 665.65 L 1382.41 658.73 L 1381.40 652.14 L 1379.83 645.84 L 1377.71 639.80 L 1375.03 634.00 L 1371.78 628.40 L 1367.93 623.00 L 1363.45 617.76 L 1358.29 612.70 L 1352.42 607.79 L 1345.76 603.04 L 1338.25 598.46 L 1329.83 594.06 L 1324.45 591.71 L 1319.25 589.85 L 1314.19 588.45 L 1309.28 587.48 L 1302.58 586.73 L 1296.15 586.59 L 1289.96 587.03 L 1283.82 587.98 L 1277.95 589.34 L 1272.35 591.09 L 1266.87 593.20 L 1261.72 595.52 L 1256.91 598.03 L 1250.02 602.16 L 1244.09 606.25 L 1238.65 610.46 L 1234.36 614.12 L 1228.19 620.03 L 1226.03 622.36 L 1221.20 617.01 L 1216.44 612.54 L 1211.74 608.86 L 1207.08 605.91 L 1202.44 603.62 L 1197.80 601.94 L 1193.13 600.85 L 1188.40 600.32 L 1183.58 600.35 L 1178.63 600.96 L 1173.52 602.17 L 1168.20 604.03 L 1162.66 606.60 L 1156.86 609.94 L 1150.76 614.14 L 1144.35 606.59 L 1137.68 599.65 L 1130.74 593.27 L 1123.52 587.45 L 1116.01 582.17 L 1108.20 577.40 L 1100.06 573.13 L 1091.59 569.37 L 1082.75 566.11 L 1073.52 563.36 L 1063.88 561.12 L 1053.80 559.40 L 1043.25 558.23 L 1032.19 557.61 L 1020.61 557.59 L 1008.45 558.18 L 995.69 559.42 L 982.29 561.35 L 968.21 564.00 L 953.42 567.42 L 937.88 571.65 L 921.55 576.74 L 904.39 582.75 L 873.31 594.50 L 842.55 606.72 L 812.10 619.40 L 781.95 632.56 L 752.09 646.20 L 722.53 660.30 L 693.26 674.88 L 664.26 689.94 L 635.55 705.47 L 607.12 721.48 L 578.95 737.97 Z" fill="#c7faff" fill-rule="evenodd" group-id="1,2,4,9,14" node-id="149" stroke="none" target-height="180.3841" target-width="829.0311" target-x="578.9547" target-y="557.58905"></path></g></g><path d="M 621.80 480.44 L 611.63 475.82 L 601.84 472.03 L 592.40 469.02 L 583.28 466.74 L 574.45 465.15 L 565.89 464.22 L 557.57 463.93 L 549.47 464.25 L 541.54 465.18 L 533.78 466.70 L 526.16 468.83 L 518.65 471.56 L 511.23 474.92 L 503.90 478.93 L 496.62 483.62 L 489.40 489.02 L 482.21 495.18 L 475.05 502.15 L 469.22 510.49 L 465.17 516.97 L 462.52 521.91 L 460.96 525.61 L 460.21 528.32 L 454.87 527.20 L 450.07 526.70 L 445.75 526.77 L 441.84 527.34 L 438.27 528.39 L 435.01 529.90 L 432.01 531.89 L 429.25 534.37 L 426.70 537.40 L 418.00 532.16 L 409.37 527.62 L 400.80 523.76 L 392.27 520.54 L 383.77 517.94 L 375.29 515.94 L 366.79 514.53 L 358.26 513.71 L 349.69 513.46 L 341.06 513.79 L 332.34 514.71 L 323.52 516.23 L 314.57 518.36 L 305.48 521.14 L 296.23 524.58 L 286.80 528.72 L 277.17 533.60 L 267.32 539.25 L 257.25 545.72 L 246.94 553.05 L 236.36 561.31 L 223.30 554.72 L 211.03 549.19 L 199.50 544.63 L 188.65 540.98 L 178.44 538.17 L 168.83 536.13 L 159.77 534.81 L 151.21 534.16 L 143.13 534.14 L 135.47 534.71 L 128.20 535.85 L 121.28 537.54 L 114.67 539.77 L 108.36 542.54 L 102.31 545.86 L 96.50 549.74 L 90.91 554.21 L 85.54 559.30 L 80.37 565.05 L 75.40 571.52 L 70.63 578.74 L 66.07 586.79 L 61.73 595.72 L 57.64 605.61 L 53.80 616.54 L 50.25 628.57 L 43.75 630.69 L 37.83 633.18 L 32.43 636.03 L 27.52 639.22 L 23.05 642.76 L 19.01 646.66 L 15.37 650.93 L 12.11 655.60 L 9.23 660.69 L 6.73 666.24 L 4.62 672.30 L 2.92 678.90 L 1.64 686.10 L 0.83 693.94 L 0.52 702.50 L 0.76 711.82 L 108.71 708.51 L 264.21 703.73 L 267.52 706.42 L 271.62 709.00 L 276.61 711.45 L 282.64 713.76 L 289.84 715.90 L 298.37 717.81 L 308.40 719.45 L 320.12 720.76 L 333.72 721.69 L 349.39 722.16 L 367.34 722.11 L 387.81 721.45 L 411.03 720.11 L 437.23 718.01 L 466.67 715.05 L 499.63 711.14 L 536.37 706.18 L 577.17 700.09 L 622.35 692.74 L 621.80 480.44 Z" fill="#96dbff" fill-rule="evenodd" group-id="1,2,4" id="路径-390" node-id="33" stroke="none" target-height="258.23233" target-width="621.82556" target-x="0.52241516" target-y="463.92935"></path><path d="M 91.85 669.08 L 93.38 662.57 L 95.23 656.95 L 97.36 652.10 L 99.74 647.96 L 102.37 644.43 L 105.23 641.46 L 108.34 638.99 L 111.72 636.99 L 115.41 635.45 L 119.43 634.36 L 123.86 633.75 L 128.73 633.64 L 134.12 634.08 L 140.10 635.15 L 146.72 636.93 L 150.10 632.82 L 153.94 628.83 L 158.29 624.96 L 162.92 621.43 L 167.88 618.24 L 173.19 615.38 L 178.71 612.98 L 184.42 611.09 L 190.34 609.73 L 194.85 609.10 L 199.40 608.86 L 204.00 609.00 L 208.68 609.54 L 213.25 610.49 L 217.83 611.93 L 222.45 613.88 L 227.13 616.36 L 228.75 614.38 L 230.78 612.55 L 233.27 610.87 L 236.31 609.35 L 240.50 607.80 L 245.37 606.55 L 251.02 605.61 L 256.71 605.09 L 262.88 604.90 L 269.58 605.08 L 276.25 605.58 L 283.16 606.44 L 290.32 607.66 L 297.42 609.19 L 304.50 611.07 L 311.57 613.29 L 318.52 615.84 L 325.21 618.70 L 331.64 621.88 L 337.93 616.89 L 343.81 612.89 L 349.33 609.78 L 354.52 607.47 L 359.42 605.87 L 364.08 604.91 L 368.53 604.55 L 372.81 604.75 L 376.97 605.51 L 381.04 606.81 L 385.06 608.70 L 389.04 611.20 L 393.02 614.39 L 397.00 618.33 L 400.99 623.11 L 404.45 614.40 L 408.02 606.83 L 411.68 600.28 L 415.42 594.67 L 419.24 589.90 L 423.12 585.88 L 427.08 582.55 L 431.12 579.84 L 435.26 577.71 L 439.53 576.13 L 443.95 575.07 L 448.57 574.54 L 453.40 574.54 L 458.51 575.11 L 463.92 576.29 L 469.69 578.13 L 475.85 580.71 L 482.44 584.09 L 489.52 588.38 L 495.77 580.87 L 501.85 574.40 L 507.78 568.89 L 513.58 564.25 L 519.25 560.40 L 524.81 557.29 L 530.29 554.86 L 535.71 553.06 L 541.09 551.86 L 546.47 551.24 L 551.86 551.18 L 557.31 551.69 L 562.85 552.79 L 568.49 554.50 L 574.27 556.87 L 580.22 559.93 L 586.36 563.76 L 592.71 568.42 L 599.30 573.99 L 606.14 580.56 L 859.34 581.53 L 535.08 683.86 L 439.59 713.84 L 424.85 719.42 L 411.11 724.03 L 398.29 727.75 L 386.35 730.63 L 375.23 732.74 L 364.86 734.15 L 355.20 734.90 L 346.20 735.04 L 337.81 734.62 L 329.97 733.67 L 322.66 732.22 L 315.81 730.30 L 309.40 727.92 L 303.39 725.08 L 297.75 721.80 L 292.46 718.06 L 287.48 713.84 L 279.24 720.69 L 271.07 726.76 L 262.96 732.08 L 254.89 736.71 L 246.85 740.67 L 238.83 743.99 L 230.81 746.70 L 222.78 748.81 L 214.72 750.35 L 206.61 751.31 L 198.42 751.70 L 190.15 751.51 L 181.77 750.75 L 173.26 749.39 L 164.59 747.42 L 155.75 744.81 L 146.72 741.54 L 143.36 743.46 L 139.92 744.95 L 136.39 746.03 L 132.76 746.71 L 127.83 747.05 L 122.97 746.78 L 118.14 745.90 L 113.45 744.47 L 109.09 742.55 L 105.02 740.15 L 101.30 737.28 L 98.15 734.07 L 95.54 730.50 L 93.98 727.59 L 92.84 724.56 L 92.13 721.37 L 91.85 718.00 L 88.49 719.81 L 84.94 721.10 L 81.16 721.87 L 77.30 722.13 L 73.45 721.90 L 69.57 721.17 L 65.82 719.97 L 62.30 718.31 L 58.97 716.19 L 55.98 713.64 L 53.41 710.66 L 51.23 707.23 L 49.98 704.47 L 49.05 701.47 L 48.46 698.19 L 48.23 694.59 L 48.49 691.04 L 49.23 687.84 L 50.45 684.93 L 52.14 682.26 L 54.34 679.79 L 57.13 677.52 L 60.57 675.44 L 64.78 673.58 L 69.87 671.96 L 75.97 670.63 L 83.25 669.65 L 91.85 669.08 Z" fill="#c7faff" fill-rule="evenodd" group-id="1,2,4" id="路径-2" node-id="34" stroke="none" target-height="200.51611" target-width="811.1096" target-x="48.23288" target-y="551.1791"></path><path d="M 171.29 657.33 L 174.76 651.03 L 178.33 645.70 L 181.99 641.22 L 185.72 637.50 L 189.55 634.48 L 193.48 632.09 L 197.54 630.28 L 201.76 629.03 L 206.17 628.32 L 210.81 628.17 L 215.74 628.61 L 220.99 629.67 L 226.62 631.43 L 232.68 633.96 L 239.21 637.35 L 244.46 632.12 L 249.77 627.62 L 255.13 623.79 L 260.57 620.59 L 266.11 617.99 L 271.75 615.97 L 277.53 614.49 L 283.46 613.57 L 289.59 613.20 L 295.94 613.40 L 302.54 614.20 L 309.42 615.61 L 316.62 617.70 L 324.17 620.50 L 332.11 624.08 L 340.45 628.50 L 344.94 624.94 L 349.05 622.33 L 352.86 620.54 L 356.40 619.46 L 359.73 619.00 L 362.90 619.12 L 365.97 619.79 L 368.99 621.04 L 371.99 622.91 L 375.00 625.49 L 378.05 628.89 L 383.24 623.78 L 388.33 619.59 L 393.34 616.24 L 398.29 613.65 L 403.19 611.75 L 408.09 610.50 L 413.03 609.88 L 418.02 609.88 L 423.12 610.50 L 428.37 611.78 L 433.80 613.76 L 439.45 616.50 L 445.35 620.09 L 451.54 624.62 L 456.62 624.66 L 460.74 625.21 L 464.06 626.19 L 466.73 627.54 L 468.85 629.23 L 470.50 631.27 L 471.72 633.71 L 472.51 636.64 L 486.63 633.45 L 498.79 631.26 L 509.22 629.95 L 518.09 629.39 L 525.60 629.47 L 531.91 630.08 L 537.19 631.14 L 541.57 632.58 L 545.18 634.34 L 548.14 636.40 L 550.53 638.75 L 552.42 641.41 L 553.83 644.42 L 554.78 647.84 L 555.09 650.87 L 554.83 653.66 L 554.03 656.28 L 552.66 658.77 L 550.65 661.19 L 547.89 663.54 L 544.23 665.84 L 539.51 668.05 L 533.52 670.15 L 526.04 672.09 L 516.83 673.82 L 505.63 675.26 L 492.16 676.35 L 476.11 677.01 L 457.18 677.14 L 445.15 683.54 L 433.69 689.01 L 422.77 693.61 L 412.36 697.39 L 402.43 700.43 L 392.95 702.74 L 383.88 704.40 L 375.20 705.42 L 366.88 705.84 L 358.88 705.69 L 351.17 704.99 L 343.74 703.76 L 336.55 702.00 L 329.59 699.71 L 322.82 696.90 L 316.23 693.54 L 308.52 698.23 L 301.43 701.92 L 294.90 704.71 L 288.88 706.70 L 283.32 707.97 L 278.16 708.60 L 273.35 708.64 L 268.85 708.12 L 264.60 707.08 L 260.57 705.52 L 256.73 703.42 L 253.04 700.76 L 249.49 697.48 L 240.74 702.14 L 232.73 705.82 L 225.41 708.61 L 218.71 710.62 L 212.58 711.92 L 206.95 712.58 L 201.78 712.67 L 197.00 712.24 L 192.57 711.30 L 188.44 709.89 L 184.58 708.01 L 180.95 705.63 L 177.54 702.75 L 174.32 699.30 L 171.29 695.25 L 167.35 693.66 L 164.09 692.65 L 161.03 691.72 L 158.63 690.72 L 157.26 689.85 L 156.11 688.64 L 155.17 687.04 L 154.56 685.27 L 154.13 682.72 L 153.96 679.17 L 154.21 675.78 L 154.96 672.64 L 156.21 669.71 L 157.95 666.96 L 160.26 664.35 L 163.19 661.87 L 166.83 659.53 L 171.29 657.33 Z" fill="#e7fdff" fill-rule="evenodd" group-id="1,2,4" id="路径-3" node-id="35" stroke="none" target-height="102.79596" target-width="401.13672" target-x="153.95546" target-y="609.8777"></path><path d="M 1075.08 0.00 L 1078.81 0.84 L 1082.06 2.08 L 1084.88 3.71 L 1087.32 5.74 L 1089.44 8.19 L 1091.23 11.10 L 1092.69 14.56 L 1093.81 18.63 L 1094.52 23.42 L 1094.78 29.04 L 1094.31 36.22 L 1091.99 57.01 L 1086.08 102.64 L 1074.30 187.73 L 1053.82 330.29 L 1021.32 551.72 L 1019.70 555.48 L 1017.72 558.69 L 1015.40 561.41 L 1012.72 563.70 L 1009.65 565.57 L 1006.12 567.04 L 1002.08 568.09 L 997.44 568.67 L 992.11 568.73 L 985.99 568.18 L 929.30 98.97 L 1075.08 0.00 Z" fill="#dfe0ff" fill-rule="evenodd" group-id="1,2,4" id="路径-327" node-id="36" stroke="none" target-height="568.72504" target-width="165.4812" target-x="929.2971" target-y="0"></path><path d="M 587.18 607.29 L 655.09 223.20 L 657.23 215.16 L 659.66 208.10 L 662.36 201.92 L 665.30 196.54 L 668.47 191.89 L 671.86 187.88 L 675.47 184.47 L 679.31 181.60 L 683.40 179.25 L 704.81 169.09 L 801.44 124.06 L 1066.33 1.29 L 1070.27 0.28 L 1073.50 0.00 L 1076.16 0.30 L 1078.37 1.10 L 1080.23 2.38 L 1081.80 4.19 L 1083.10 6.64 L 1084.08 9.90 L 1084.66 14.16 L 1084.73 19.64 L 1084.15 26.61 L 1082.73 35.35 L 1080.13 50.62 L 1074.15 90.17 L 1062.51 171.66 L 1042.30 317.53 L 1009.97 555.08 L 1008.42 558.30 L 1006.51 560.95 L 1004.24 563.10 L 1001.55 564.81 L 998.41 566.07 L 994.71 566.87 L 990.36 567.16 L 980.83 567.78 L 939.04 571.60 L 826.03 582.82 L 587.18 607.29 Z" fill="#f2f3ff" fill-rule="evenodd" group-id="1,2,4" id="路径-326" node-id="37" stroke="none" target-height="607.2931" target-width="497.55463" target-x="587.17706" target-y="0.0006543398"></path><path d="M 694.32 200.06 L 1040.43 39.58 L 1045.59 38.39 L 1049.63 37.99 L 1052.75 38.20 L 1055.17 38.89 L 1057.02 39.98 L 1058.44 41.47 L 1059.47 43.43 L 1060.08 45.97 L 1060.21 49.27 L 1059.71 53.53 L 1056.18 76.70 L 1039.90 191.16 L 994.33 517.93 L 609.07 574.39 L 639.47 392.10 L 655.74 296.53 L 663.20 254.54 L 665.87 241.00 L 667.61 233.93 L 669.73 227.63 L 672.21 222.03 L 675.04 217.07 L 678.20 212.68 L 681.69 208.81 L 685.52 205.44 L 689.72 202.52 L 694.32 200.06 Z" fill="#382346" fill-rule="evenodd" group-id="1,2,4,10,15" node-id="160" stroke="none" target-height="536.4064" target-width="451.1399" target-x="609.07117" target-y="37.9876"></path><path d="M 974.32 226.88 L 974.05 231.81 L 973.33 236.52 L 972.16 241.04 L 970.53 245.38 L 968.49 249.56 L 966.09 253.47 L 963.33 257.10 L 960.21 260.49 L 956.78 263.57 L 953.10 266.29 L 949.15 268.65 L 944.90 270.68 L 940.50 272.28 L 935.93 273.44 L 931.15 274.15 L 926.15 274.42 L 921.15 274.15 L 916.37 273.44 L 911.80 272.28 L 907.40 270.68 L 903.15 268.65 L 899.20 266.29 L 895.52 263.57 L 892.09 260.49 L 888.97 257.10 L 886.21 253.47 L 883.82 249.56 L 881.77 245.38 L 880.15 241.04 L 878.97 236.52 L 878.25 231.81 L 877.98 226.88 L 878.25 221.94 L 878.97 217.23 L 880.15 212.71 L 881.77 208.37 L 883.82 204.19 L 886.21 200.29 L 888.97 196.65 L 892.09 193.26 L 895.52 190.18 L 899.20 187.46 L 903.15 185.10 L 907.40 183.07 L 911.80 181.47 L 916.37 180.31 L 921.15 179.60 L 926.15 179.33 L 931.15 179.60 L 935.93 180.31 L 940.50 181.47 L 944.90 183.07 L 949.15 185.10 L 953.10 187.46 L 956.78 190.18 L 960.21 193.26 L 963.33 196.65 L 966.09 200.29 L 968.49 204.19 L 970.53 208.37 L 972.16 212.71 L 973.33 217.23 L 974.05 221.94 L 974.32 226.88 Z" fill="#f996bc" fill-rule="evenodd" group-id="1,2,4,10,16" id="椭圆形备份-17" node-id="42" stroke="none" target-height="95.08292" target-width="96.33948" target-x="877.98047" target-y="179.33377"></path><path d="M 1075.04 321.96 L 1074.72 329.31 L 1073.85 336.42 L 1072.43 343.29 L 1070.46 349.96 L 1067.96 356.49 L 1065.01 362.70 L 1061.59 368.63 L 1057.72 374.28 L 1053.41 379.63 L 1048.75 384.60 L 1043.71 389.21 L 1038.29 393.46 L 1032.56 397.29 L 1026.56 400.65 L 1020.26 403.57 L 1013.64 406.04 L 1006.89 407.98 L 999.92 409.38 L 992.72 410.25 L 985.27 410.56 L 977.81 410.25 L 970.61 409.38 L 963.65 407.98 L 956.89 406.04 L 950.28 403.57 L 943.98 400.65 L 937.98 397.29 L 932.25 393.46 L 926.82 389.21 L 921.79 384.60 L 917.12 379.63 L 912.82 374.28 L 908.94 368.63 L 905.53 362.70 L 902.58 356.49 L 900.07 349.96 L 898.11 343.29 L 896.69 336.42 L 895.81 329.31 L 895.50 321.96 L 895.81 314.60 L 896.69 307.50 L 898.11 300.63 L 900.07 293.95 L 902.58 287.43 L 905.53 281.22 L 908.94 275.29 L 912.82 269.63 L 917.12 264.28 L 921.79 259.31 L 926.82 254.71 L 932.25 250.45 L 937.98 246.63 L 943.98 243.27 L 950.28 240.35 L 956.89 237.88 L 963.65 235.94 L 970.61 234.53 L 977.81 233.67 L 985.27 233.36 L 992.72 233.67 L 999.92 234.53 L 1006.89 235.94 L 1013.64 237.88 L 1020.26 240.35 L 1026.56 243.27 L 1032.56 246.63 L 1038.29 250.45 L 1043.71 254.71 L 1048.75 259.31 L 1053.41 264.28 L 1057.72 269.63 L 1061.59 275.29 L 1065.01 281.22 L 1067.96 287.43 L 1070.46 293.95 L 1072.43 300.63 L 1073.85 307.50 L 1074.72 314.60 L 1075.04 321.96 Z" fill="#a07bfe" fill-rule="evenodd" group-id="1,2,4,10,17" node-id="169" stroke="none" target-height="177.20001" target-width="179.54181" target-x="895.49677" target-y="233.35815"></path><path d="M 1037.82 446.21 L 1037.47 455.86 L 1036.51 465.23 L 1034.94 474.36 L 1032.77 483.27 L 1030.00 492.05 L 1026.70 500.51 L 1022.88 508.67 L 1018.54 516.56 L 1013.68 524.17 L 1008.39 531.39 L 1002.65 538.26 L 996.45 544.77 L 989.86 550.88 L 982.91 556.54 L 975.58 561.77 L 967.87 566.57 L 959.88 570.85 L 951.61 574.62 L 943.04 577.88 L 934.13 580.62 L 925.11 582.76 L 915.86 584.31 L 906.36 585.26 L 896.59 585.60 L 886.82 585.26 L 877.32 584.31 L 868.07 582.76 L 859.05 580.62 L 850.15 577.88 L 841.57 574.62 L 833.30 570.85 L 825.31 566.57 L 817.60 561.77 L 810.28 556.54 L 803.32 550.88 L 796.73 544.77 L 790.53 538.26 L 784.80 531.39 L 779.50 524.17 L 774.65 516.56 L 770.30 508.67 L 766.48 500.51 L 763.19 492.05 L 760.41 483.27 L 758.24 474.36 L 756.67 465.23 L 755.71 455.86 L 755.37 446.21 L 755.71 436.57 L 756.67 427.20 L 758.24 418.07 L 760.41 409.16 L 763.19 400.38 L 766.48 391.92 L 770.30 383.75 L 774.65 375.87 L 779.50 368.26 L 784.80 361.04 L 790.53 354.17 L 796.73 347.66 L 803.32 341.55 L 810.28 335.89 L 817.60 330.66 L 825.31 325.86 L 833.30 321.57 L 841.57 317.81 L 850.15 314.55 L 859.05 311.81 L 868.07 309.67 L 877.32 308.12 L 886.82 307.17 L 896.59 306.83 L 906.36 307.17 L 915.86 308.12 L 925.11 309.67 L 934.13 311.81 L 943.04 314.55 L 951.61 317.81 L 959.88 321.57 L 967.87 325.86 L 975.58 330.66 L 982.91 335.89 L 989.86 341.55 L 996.45 347.66 L 1002.65 354.17 L 1008.39 361.04 L 1013.68 368.26 L 1018.54 375.87 L 1022.88 383.75 L 1026.70 391.92 L 1030.00 400.38 L 1032.77 409.16 L 1034.94 418.07 L 1036.51 427.20 L 1037.47 436.57 L 1037.82 446.21 Z" fill="#b4e5ff" fill-rule="evenodd" group-id="1,2,4,10,18" node-id="174" stroke="none" target-height="278.76584" target-width="282.44977" target-x="755.36664" target-y="306.83133"></path><path d="M 122.44 786.71 L 587.18 607.29 L 992.91 550.10 L 505.72 759.66 L 141.56 795.77 Z" fill="#fefeff" fill-rule="evenodd" group-id="1,2,4" id="路径-331" node-id="45" stroke="none" target-height="245.6742" target-width="870.4749" target-x="122.43706" target-y="550.1007"></path><path d="M 122.44 786.71 L 488.15 751.79 L 515.85 763.54 L 329.42 782.39 L 223.44 792.72 L 170.56 797.51 L 149.15 799.13 L 144.01 799.22 L 139.53 798.78 L 135.63 797.86 L 132.23 796.50 L 129.25 794.72 L 126.64 792.52 L 124.38 789.87 L 122.44 786.71 Z" fill="#cdcef0" fill-rule="evenodd" group-id="1,2,4" id="路径-330" node-id="46" stroke="none" target-height="47.43573" target-width="393.40833" target-x="122.43706" target-y="751.78705"></path><path d="M 992.91 550.10 L 488.15 751.79 L 491.31 755.10 L 494.64 757.81 L 498.15 759.97 L 501.87 761.62 L 505.82 762.76 L 510.06 763.40 L 514.62 763.51 L 519.57 763.06 L 524.94 761.98 L 530.81 760.20 L 537.23 757.64 L 567.54 744.70 L 687.97 694.17 L 999.01 564.43 L 992.91 550.10 Z" fill="#dfe0ff" fill-rule="evenodd" group-id="1,2,4" id="路径-329" node-id="47" stroke="none" target-height="213.4107" target-width="510.86304" target-x="488.1455" target-y="550.1007"></path><path d="M 325.81 721.66 L 609.07 688.96 L 897.62 577.95 L 587.18 619.57 Z" fill="#c5c7e7" fill-rule="evenodd" group-id="1,2,4" id="路径-332" node-id="48" stroke="none" target-height="143.71252" target-width="571.8054" target-x="325.81244" target-y="577.9523"></path><path d="M 363.28 721.39 L 488.90 711.23 L 490.53 712.78 L 407.35 750.90 L 402.62 752.07 L 262.61 766.44 L 262.23 765.29 L 357.88 722.56 Z" fill="#a7a9cf" fill-rule="evenodd" group-id="1,2,4" id="路径-333" node-id="49" stroke="none" target-height="55.204468" target-width="228.29593" target-x="262.23135" target-y="711.2315"></path><path d="M 1023.58 133.95 L 1028.19 133.72 L 1032.84 133.06 L 1037.43 132.00 L 1041.86 130.61 L 1046.11 128.89 L 1049.98 126.95 L 1054.33 97.93 L 1058.45 71.44 L 1060.17 59.05 L 1061.45 47.86 L 1058.19 44.92 L 1054.60 42.21 L 1050.66 39.75 L 1046.52 37.61 L 1042.20 35.81 L 1037.66 34.35 L 1033.02 33.27 L 1028.34 32.62 L 1023.58 32.39 L 1018.24 32.67 L 1013.14 33.43 L 1008.25 34.67 L 1003.56 36.38 L 999.02 38.54 L 994.80 41.07 L 990.86 43.97 L 987.20 47.26 L 983.87 50.88 L 980.92 54.77 L 978.36 58.93 L 976.17 63.40 L 974.44 68.04 L 973.19 72.87 L 972.42 77.90 L 972.13 83.17 L 972.42 88.44 L 973.19 93.47 L 974.44 98.30 L 976.17 102.94 L 978.36 107.41 L 980.92 111.57 L 983.87 115.46 L 987.20 119.08 L 990.86 122.37 L 994.80 125.27 L 999.02 127.80 L 1003.56 129.96 L 1008.25 131.67 L 1013.14 132.91 L 1018.24 133.67 L 1023.58 133.95 Z" fill="#42f4da" fill-rule="evenodd" group-id="1,2,4" id="椭圆形" node-id="50" stroke="none" target-height="101.56586" target-width="89.32422" target-x="972.1305" target-y="32.387432"></path><path d="M 648.55 612.80 L 648.25 618.29 L 647.44 623.54 L 646.14 628.57 L 644.33 633.41 L 642.05 638.07 L 639.38 642.41 L 636.31 646.46 L 632.84 650.24 L 629.02 653.66 L 624.92 656.69 L 620.51 659.33 L 615.78 661.58 L 610.89 663.36 L 605.79 664.65 L 600.48 665.45 L 594.90 665.74 L 589.33 665.45 L 584.01 664.65 L 578.92 663.36 L 574.02 661.58 L 569.29 659.33 L 564.89 656.69 L 560.79 653.66 L 556.97 650.24 L 553.49 646.46 L 550.43 642.41 L 547.76 638.07 L 545.48 633.41 L 543.67 628.57 L 542.36 623.54 L 541.56 618.29 L 541.26 612.80 L 541.56 607.30 L 542.36 602.06 L 543.67 597.03 L 545.48 592.19 L 547.76 587.53 L 550.43 583.19 L 553.49 579.14 L 556.97 575.36 L 560.79 571.93 L 564.89 568.91 L 569.29 566.27 L 574.02 564.01 L 578.92 562.23 L 584.01 560.95 L 589.33 560.15 L 594.90 559.85 L 600.48 560.15 L 605.79 560.95 L 610.89 562.23 L 615.78 564.01 L 620.51 566.27 L 624.92 568.91 L 629.02 571.93 L 632.84 575.36 L 636.31 579.14 L 639.38 583.19 L 642.05 587.53 L 644.33 592.19 L 646.14 597.03 L 647.44 602.06 L 648.25 607.30 L 648.55 612.80 Z" fill="#42f4da" fill-rule="evenodd" group-id="1,2,4" id="椭圆形" node-id="51" stroke="none" target-height="105.88782" target-width="107.28717" target-x="541.26025" target-y="559.8543"></path><path d="M 774.92 291.73 L 774.68 296.22 L 774.02 300.50 L 772.95 304.61 L 771.48 308.55 L 769.61 312.36 L 767.43 315.90 L 764.93 319.21 L 762.09 322.29 L 758.98 325.09 L 755.63 327.56 L 752.03 329.71 L 748.17 331.55 L 744.17 333.01 L 740.02 334.06 L 735.68 334.71 L 731.13 334.95 L 726.58 334.71 L 722.24 334.06 L 718.08 333.01 L 714.08 331.55 L 710.22 329.71 L 706.63 327.56 L 703.28 325.09 L 700.16 322.29 L 697.32 319.21 L 694.82 315.90 L 692.64 312.36 L 690.78 308.55 L 689.30 304.61 L 688.24 300.50 L 687.58 296.22 L 687.34 291.73 L 687.58 287.25 L 688.24 282.96 L 689.30 278.86 L 690.78 274.91 L 692.64 271.11 L 694.82 267.56 L 697.32 264.25 L 700.16 261.17 L 703.28 258.37 L 706.63 255.90 L 710.22 253.75 L 714.08 251.91 L 718.08 250.46 L 722.24 249.40 L 726.58 248.75 L 731.13 248.51 L 735.68 248.75 L 740.02 249.40 L 744.17 250.46 L 748.17 251.91 L 752.03 253.75 L 755.63 255.90 L 758.98 258.37 L 762.09 261.17 L 764.93 264.25 L 767.43 267.56 L 769.61 271.11 L 771.48 274.91 L 772.95 278.86 L 774.02 282.96 L 774.68 287.25 L 774.92 291.73 Z" fill="#aeaaf4" fill-rule="evenodd" group-id="1,2,4" id="椭圆形" node-id="52" stroke="none" target-height="86.43904" target-width="87.58136" target-x="687.3366" target-y="248.51219"></path><path d="M 849.36 140.46 L 849.13 143.73 L 848.50 146.80 L 847.47 149.72 L 846.06 152.47 L 844.35 154.98 L 842.31 157.27 L 839.99 159.28 L 837.45 160.98 L 834.65 162.37 L 831.70 163.38 L 828.59 164.01 L 825.28 164.23 L 821.97 164.01 L 818.85 163.38 L 815.90 162.37 L 813.10 160.98 L 810.56 159.28 L 808.25 157.27 L 806.21 154.98 L 804.49 152.47 L 803.09 149.72 L 802.05 146.80 L 801.42 143.73 L 801.19 140.46 L 801.42 137.20 L 802.05 134.13 L 803.09 131.21 L 804.49 128.45 L 806.21 125.94 L 808.25 123.65 L 810.56 121.64 L 813.10 119.95 L 815.90 118.56 L 818.85 117.54 L 821.97 116.92 L 825.28 116.69 L 828.59 116.92 L 831.70 117.54 L 834.65 118.56 L 837.45 119.95 L 839.99 121.64 L 842.31 123.65 L 844.35 125.94 L 846.06 128.45 L 847.47 131.21 L 848.50 134.13 L 849.13 137.20 L 849.36 140.46 Z" fill="#64ffc0" fill-rule="evenodd" group-id="1,2,4" id="椭圆形" node-id="53" stroke="none" target-height="47.541466" target-width="48.16974" target-x="801.1924" target-y="116.69268"></path><path d="M 678.58 460.29 L 678.32 463.05 L 677.62 465.58 L 676.49 467.92 L 674.96 470.04 L 673.14 471.84 L 670.99 473.35 L 668.61 474.47 L 666.05 475.16 L 663.25 475.41 L 660.45 475.16 L 657.89 474.47 L 655.52 473.35 L 653.36 471.84 L 651.54 470.04 L 650.02 467.92 L 648.88 465.58 L 648.19 463.05 L 647.93 460.29 L 648.19 457.53 L 648.88 455.00 L 650.02 452.65 L 651.54 450.53 L 653.36 448.73 L 655.52 447.23 L 657.89 446.11 L 660.45 445.42 L 663.25 445.16 L 666.05 445.42 L 668.61 446.11 L 670.99 447.23 L 673.14 448.73 L 674.96 450.53 L 676.49 452.65 L 677.62 455.00 L 678.32 457.53 L 678.58 460.29 Z" fill="#fec047" fill-rule="evenodd" group-id="1,2,4" id="椭圆形" node-id="54" stroke="none" target-height="30.253662" target-width="30.653442" target-x="647.92505" target-y="445.16098"></path><path d="M 600.57 146.12 L 600.32 150.61 L 599.67 154.89 L 598.60 158.99 L 597.13 162.94 L 595.26 166.75 L 593.08 170.29 L 590.58 173.60 L 587.74 176.68 L 584.62 179.48 L 581.28 181.95 L 577.68 184.10 L 573.82 185.94 L 569.82 187.40 L 565.67 188.45 L 561.33 189.10 L 556.78 189.34 L 552.23 189.10 L 547.89 188.45 L 543.73 187.40 L 539.73 185.94 L 535.87 184.10 L 532.28 181.95 L 528.93 179.48 L 525.81 176.68 L 522.97 173.60 L 520.47 170.29 L 518.29 166.75 L 516.43 162.94 L 514.95 158.99 L 513.89 154.89 L 513.23 150.61 L 512.99 146.12 L 513.23 141.64 L 513.89 137.35 L 514.95 133.25 L 516.43 129.30 L 518.29 125.49 L 520.47 121.95 L 522.97 118.64 L 525.81 115.56 L 528.93 112.76 L 532.28 110.29 L 535.87 108.14 L 539.73 106.30 L 543.73 104.84 L 547.89 103.79 L 552.23 103.14 L 556.78 102.90 L 561.33 103.14 L 565.67 103.79 L 569.82 104.84 L 573.82 106.30 L 577.68 108.14 L 581.28 110.29 L 584.62 112.76 L 587.74 115.56 L 590.58 118.64 L 593.08 121.95 L 595.26 125.49 L 597.13 129.30 L 598.60 133.25 L 599.67 137.35 L 600.32 141.64 L 600.57 146.12 Z" fill="#96dbff" fill-rule="evenodd" group-id="1,2,4" id="椭圆形" node-id="55" stroke="none" target-height="86.43903" target-width="87.5813" target-x="512.9863" target-y="102.90157"></path><path d="M 624.65 207.71 L 624.34 211.06 L 623.49 214.13 L 622.11 216.98 L 620.26 219.55 L 618.05 221.74 L 615.43 223.57 L 612.55 224.93 L 609.44 225.76 L 606.04 226.08 L 602.64 225.76 L 599.53 224.93 L 596.65 223.57 L 594.03 221.74 L 591.82 219.56 L 589.97 216.98 L 588.59 214.13 L 587.75 211.06 L 587.43 207.71 L 587.75 204.36 L 588.59 201.29 L 589.97 198.44 L 591.82 195.86 L 594.03 193.68 L 596.65 191.85 L 599.53 190.49 L 602.64 189.65 L 606.04 189.34 L 609.44 189.65 L 612.55 190.49 L 615.43 191.85 L 618.05 193.68 L 620.26 195.86 L 622.11 198.44 L 623.49 201.29 L 624.34 204.36 L 624.65 207.71 Z" fill="#96dbff" fill-rule="evenodd" group-id="1,2,4" id="椭圆形" node-id="56" stroke="none" target-height="36.736572" target-width="37.222107" target-x="587.4304" target-y="189.3406"></path><path d="M 1173.80 125.15 L 1173.58 128.16 L 1173.00 130.98 L 1172.07 133.64 L 1170.78 136.15 L 1168.59 139.21 L 1165.96 141.80 L 1162.86 143.97 L 1160.32 145.24 L 1157.63 146.15 L 1154.77 146.73 L 1151.71 146.95 L 1148.65 146.73 L 1145.79 146.15 L 1143.10 145.24 L 1140.56 143.97 L 1137.46 141.80 L 1134.83 139.21 L 1132.64 136.15 L 1131.35 133.64 L 1130.42 130.98 L 1129.84 128.16 L 1129.62 125.15 L 1129.84 122.13 L 1130.42 119.31 L 1131.35 116.65 L 1132.64 114.14 L 1134.83 111.09 L 1137.46 108.49 L 1140.56 106.32 L 1143.10 105.05 L 1145.79 104.14 L 1148.65 103.56 L 1151.71 103.34 L 1154.77 103.56 L 1157.63 104.14 L 1160.32 105.05 L 1162.86 106.32 L 1165.96 108.49 L 1168.59 111.09 L 1170.78 114.14 L 1172.07 116.65 L 1173.00 119.31 L 1173.58 122.13 L 1173.80 125.15 Z" fill="#57e4c3" fill-rule="evenodd" group-id="1,2,4" id="椭圆形" node-id="57" stroke="none" target-height="43.602356" target-width="44.1781" target-x="1129.6223" target-y="103.34398"></path><path d="M 1136.19 165.31 L 1135.91 167.34 L 1135.14 169.13 L 1133.95 170.66 L 1132.40 171.85 L 1130.58 172.60 L 1128.53 172.88 L 1126.47 172.60 L 1124.66 171.85 L 1123.11 170.66 L 1121.91 169.13 L 1121.14 167.34 L 1120.86 165.31 L 1121.14 163.29 L 1121.91 161.50 L 1123.11 159.97 L 1124.66 158.78 L 1126.47 158.03 L 1128.53 157.75 L 1130.58 158.03 L 1132.40 158.78 L 1133.95 159.97 L 1135.14 161.50 L 1135.91 163.29 L 1136.19 165.31 Z" fill="#57e4c3" fill-rule="evenodd" group-id="1,2,4" id="椭圆形" node-id="58" stroke="none" target-height="15.126831" target-width="15.32666" target-x="1120.8643" target-y="157.75122"></path><path d="M 623.84 775.52 L 677.58 771.87 L 726.16 768.03 L 769.92 764.04 L 809.19 759.93 L 844.29 755.72 L 875.53 751.45 L 903.20 747.13 L 927.58 742.79 L 948.96 738.46 L 967.58 734.15 L 983.70 729.89 L 997.55 725.68 L 1009.35 721.56 L 1024.50 715.53 L 1036.52 710.17 L 1047.49 704.70 L 1056.08 699.94 L 1063.87 695.21 L 1070.01 691.19 L 1080.32 684.19 L 1084.82 681.40 L 1088.98 679.25 L 1091.81 678.12 L 1094.81 677.26 L 1098.01 676.66 L 1101.24 676.38 L 1105.01 676.38 L 1109.38 676.71 L 1116.20 677.75 L 1125.09 679.69 L 1134.73 682.25 L 1147.14 685.91 L 1150.03 681.27 L 1153.11 677.38 L 1156.36 674.18 L 1159.81 671.58 L 1163.47 669.54 L 1167.37 668.04 L 1171.56 667.07 L 1176.09 666.64 L 1181.00 666.78 L 1186.36 667.55 L 1192.24 669.03 L 1198.69 671.29 L 1205.21 662.01 L 1211.74 653.75 L 1218.28 646.43 L 1224.83 639.98 L 1231.40 634.35 L 1237.98 629.48 L 1244.61 625.32 L 1251.28 621.84 L 1258.02 619.01 L 1264.85 616.79 L 1271.79 615.17 L 1278.87 614.15 L 1286.10 613.73 L 1293.53 613.91 L 1301.17 614.72 L 1309.07 616.18 L 1317.24 618.33 L 1325.72 621.21 L 1334.53 624.86 L 1344.47 621.84 L 1353.72 619.63 L 1362.34 618.18 L 1370.38 617.41 L 1377.89 617.28 L 1384.92 617.75 L 1391.52 618.79 L 1397.72 620.36 L 1403.57 622.46 L 1409.09 625.08 L 1414.33 628.24 L 1419.29 631.95 L 1424.01 636.23 L 1428.49 641.14 L 1432.74 646.71 L 1436.75 653.00 L 1439.68 658.39 L 1442.11 663.69 L 1444.05 668.92 L 1445.53 674.08 L 1446.58 679.20 L 1447.17 684.44 L 1447.24 689.63 L 1446.79 694.79 L 1445.82 699.96 L 1444.30 705.16 L 1442.34 710.05 L 1439.78 714.99 L 1436.57 720.00 L 1432.66 725.08 L 1427.98 730.27 L 1423.22 734.83 L 1417.68 739.47 L 1411.30 744.20 L 1403.98 749.02 L 1395.65 753.93 L 1387.67 758.16 L 1378.73 762.44 L 1368.75 766.76 L 1357.66 771.13 L 1345.38 775.53 L 1330.63 780.29 L 1314.11 785.05 L 1295.68 789.78 L 1275.20 794.48 L 1260.33 797.37 L 1243.50 800.02 L 1224.55 802.38 L 1203.31 804.40 L 1179.58 806.04 L 1153.17 807.25 L 1123.89 807.97 L 1091.53 808.15 L 1055.87 807.74 L 1016.69 806.68 L 973.77 804.89 L 926.86 802.34 L 875.73 798.93 L 820.12 794.62 L 759.78 789.33 L 694.45 782.99 L 623.84 775.52 Z" fill="#e7fdff" fill-rule="evenodd" group-id="1,2,4,11,19" node-id="194" stroke="none" target-height="194.42548" target-width="823.39716" target-x="623.84015" target-y="613.7293"></path></g><g node-id="216"><path d="M 393.38 530.38 L 398.58 543.18 L 401.76 552.24 L 403.43 558.40 L 404.06 562.38 L 404.02 564.82 L 403.56 566.22 L 400.72 567.69 L 398.47 569.38 L 396.73 571.30 L 395.43 573.46 L 394.57 575.91 L 394.13 578.71 L 394.17 581.94 L 394.77 585.68 L 389.28 584.74 L 384.50 584.45 L 380.35 584.69 L 376.74 585.42 L 373.58 586.58 L 370.82 588.16 L 368.39 590.17 L 366.27 592.63 L 364.45 595.60 L 362.93 599.17 L 361.91 603.01 L 361.52 606.27 L 361.68 609.06 L 362.30 611.79 L 363.22 614.14 L 364.44 616.16 L 366.70 618.82 L 369.07 620.82 L 371.54 622.41 L 373.43 623.37 L 375.35 624.15 L 377.36 629.94 L 379.63 634.89 L 382.13 639.08 L 384.85 642.61 L 387.78 645.55 L 390.94 647.95 L 394.35 649.85 L 398.04 651.27 L 402.06 652.21 L 406.45 652.65 L 411.27 652.56 L 416.59 651.87 L 422.48 650.52 L 428.90 653.14 L 434.62 654.92 L 439.73 655.97 L 444.31 656.39 L 448.42 656.24 L 452.13 655.58 L 455.51 654.45 L 458.60 652.84 L 461.44 650.74 L 464.06 648.10 L 466.47 644.87 L 468.67 640.97 L 470.63 636.29 L 472.32 630.72 L 473.70 624.15 L 476.15 625.43 L 478.60 626.31 L 481.09 626.81 L 483.64 626.94 L 487.05 626.61 L 490.38 625.78 L 493.66 624.42 L 496.75 622.64 L 499.57 620.51 L 502.14 618.01 L 504.36 615.22 L 506.12 612.27 L 507.43 609.13 L 508.21 605.84 L 508.37 602.54 L 507.91 599.17 L 510.72 596.10 L 512.96 592.91 L 514.68 589.58 L 515.95 586.05 L 516.70 582.59 L 516.96 579.16 L 516.73 575.74 L 516.04 572.57 L 514.88 569.61 L 513.24 566.91 L 511.16 564.59 L 508.59 562.63 L 506.46 561.51 L 504.06 560.68 L 501.33 560.14 L 498.24 559.93 L 495.22 554.83 L 492.18 550.74 L 489.12 547.53 L 486.02 545.07 L 482.87 543.29 L 479.63 542.10 L 476.27 541.49 L 472.73 541.45 L 468.96 542.00 L 464.90 543.22 L 460.49 545.20 L 455.67 548.04 L 450.39 551.89 L 442.22 544.88 L 434.74 537.69 L 427.91 530.30 L 421.69 522.73 L 416.08 514.95 L 394.75 507.09 L 393.38 530.38 Z" fill="#ffffff" fill-rule="evenodd" group-id="1,2,5" id="路径-409" node-id="64" stroke="none" target-height="149.2934" target-width="155.43256" target-x="361.52423" target-y="507.09174"></path><path d="M 356.29 595.99 L 356.01 597.36 L 355.27 598.46 L 354.17 599.20 L 352.80 599.48 L 351.43 599.20 L 350.33 598.46 L 349.58 597.36 L 349.30 595.99 L 349.58 594.62 L 350.33 593.53 L 351.43 592.78 L 352.80 592.50 L 354.17 592.78 L 355.27 593.53 L 356.01 594.62 L 356.29 595.99 Z" fill="#ffffff" fill-rule="evenodd" group-id="1,2,5" id="椭圆形" node-id="65" stroke="none" target-height="6.972473" target-width="6.987335" target-x="349.3038" target-y="592.5046"></path><path d="M 382.49 572.46 L 382.33 573.64 L 381.90 574.66 L 381.21 575.54 L 380.33 576.23 L 379.31 576.65 L 378.13 576.82 L 376.94 576.65 L 375.92 576.23 L 375.04 575.54 L 374.35 574.66 L 373.93 573.64 L 373.76 572.46 L 373.93 571.28 L 374.35 570.26 L 375.04 569.38 L 375.92 568.69 L 376.94 568.27 L 378.13 568.10 L 379.31 568.27 L 380.33 568.69 L 381.21 569.38 L 381.90 570.26 L 382.33 571.28 L 382.49 572.46 Z" fill="#ffffff" fill-rule="evenodd" group-id="1,2,5" id="椭圆形" node-id="66" stroke="none" target-height="8.715576" target-width="8.734161" target-x="373.7595" target-y="568.10095"></path><path d="M 370.27 561.13 L 370.01 563.00 L 369.31 564.65 L 368.22 566.06 L 366.81 567.15 L 365.15 567.85 L 363.28 568.10 L 361.41 567.85 L 359.75 567.15 L 358.34 566.06 L 357.25 564.65 L 356.54 563.00 L 356.29 561.13 L 356.54 559.26 L 357.25 557.61 L 358.34 556.20 L 359.75 555.11 L 361.41 554.41 L 363.28 554.16 L 365.15 554.41 L 366.81 555.11 L 368.22 556.20 L 369.31 557.61 L 370.01 559.26 L 370.27 561.13 Z" fill="#ffffff" fill-rule="evenodd" group-id="1,2,5" id="椭圆形" node-id="67" stroke="none" target-height="13.944946" target-width="13.97467" target-x="356.29114" target-y="554.156"></path><path d="M 506.52 531.50 L 506.32 532.92 L 505.81 534.13 L 504.98 535.19 L 503.92 536.02 L 502.70 536.52 L 501.28 536.72 L 499.86 536.52 L 498.64 536.02 L 497.57 535.19 L 496.75 534.13 L 496.24 532.92 L 496.04 531.50 L 496.24 530.08 L 496.75 528.86 L 497.57 527.80 L 498.64 526.98 L 499.86 526.47 L 501.28 526.27 L 502.70 526.47 L 503.92 526.98 L 504.98 527.80 L 505.81 528.86 L 506.32 530.08 L 506.52 531.50 Z" fill="#ffffff" fill-rule="evenodd" group-id="1,2,5" id="椭圆形" node-id="68" stroke="none" target-height="10.458679" target-width="10.481018" target-x="496.03796" target-y="526.26605"></path><path d="M 504.77 548.93 L 504.49 550.29 L 503.75 551.39 L 502.65 552.13 L 501.28 552.41 L 499.91 552.13 L 498.81 551.39 L 498.06 550.29 L 497.78 548.93 L 498.06 547.56 L 498.81 546.46 L 499.91 545.72 L 501.28 545.44 L 502.65 545.72 L 503.75 546.46 L 504.49 547.56 L 504.77 548.93 Z" fill="#ffffff" fill-rule="evenodd" group-id="1,2,5" id="椭圆形" node-id="69" stroke="none" target-height="6.972473" target-width="6.987335" target-x="497.78482" target-y="545.44037"></path><path d="M 398.23 527.50 L 421.97 552.53 L 418.71 540.26 L 415.42 529.81 L 412.13 520.99 L 410.78 518.29 L 409.54 516.73 L 408.37 515.96 L 407.22 515.75 L 405.99 516.07 L 404.56 517.05 L 402.83 518.99 L 400.75 522.31 L 398.23 527.50 Z" fill="#cce3e6" fill-rule="evenodd" group-id="1,2,5" id="路径-410" node-id="70" stroke="none" target-height="36.783813" target-width="23.745605" target-x="398.22937" target-y="515.74927"></path><g node-id="223"><path d="M 377.92 536.13 L 379.91 537.89 L 382.02 539.04 L 384.30 539.64 L 386.84 539.68 L 389.70 539.11 L 392.12 538.26 L 395.89 536.68 L 404.63 532.45 L 409.37 529.89 L 414.05 527.16 L 418.52 524.29 L 422.24 521.57 L 424.55 519.62 L 426.20 517.91 L 427.32 516.42 L 428.69 513.75 L 429.47 511.16 L 429.73 508.62 L 429.48 506.08 L 428.69 503.48 L 427.32 500.78 L 377.92 536.13 Z" fill="#1d36c4" fill-rule="evenodd" group-id="1,2,5,12" id="路径-408" node-id="72" stroke="none" target-height="38.897278" target-width="51.808594" target-x="377.92065" target-y="500.78046"></path><g node-id="231"><path d="M 255.88 391.84 L 262.22 405.21 L 266.21 413.09 L 271.46 422.61 L 277.46 432.54 L 285.26 444.29 L 290.90 452.16 L 297.54 460.88 L 305.29 470.50 L 313.28 479.90 L 322.54 490.22 L 333.18 501.51 L 344.08 512.53 L 356.52 524.53 L 370.62 537.57 L 379.54 535.64 L 387.56 533.40 L 394.76 530.88 L 401.21 528.11 L 406.97 525.10 L 412.09 521.87 L 416.62 518.43 L 420.62 514.77 L 424.12 510.88 L 427.15 506.78 L 429.73 502.42 L 424.29 477.10 L 418.81 454.24 L 413.32 433.68 L 407.83 415.26 L 402.37 398.81 L 396.94 384.20 L 391.56 371.26 L 386.23 359.88 L 380.98 349.91 L 375.81 341.23 L 370.71 333.73 L 365.70 327.29 L 358.33 318.99 L 351.09 311.62 L 343.96 305.13 L 336.93 299.45 L 329.37 294.07 L 322.12 289.56 L 315.15 285.85 L 308.44 282.88 L 301.32 280.37 L 294.68 278.63 L 288.47 277.61 L 282.64 277.24 L 277.82 277.42 L 273.39 278.02 L 269.28 279.04 L 265.48 280.44 L 261.95 282.23 L 258.67 284.48 L 255.65 287.17 L 252.87 290.33 L 250.34 294.01 L 248.23 297.88 L 246.38 302.18 L 244.80 306.93 L 243.51 312.19 L 242.62 317.41 L 242.04 323.00 L 241.78 329.00 L 241.88 335.43 L 242.54 343.87 L 243.85 352.85 L 245.86 362.42 L 248.45 371.84 L 251.77 381.63 L 255.88 391.84 Z" fill="#6890ff" fill-rule="evenodd" group-id="1,2,5,12,20" node-id="210" stroke="none" target-height="260.32236" target-width="187.94643" target-x="241.78282" target-y="277.24393"></path></g><g node-id="232"><path d="M 345.54 519.00 L 353.18 518.70 L 360.64 517.79 L 367.97 516.29 L 375.17 514.18 L 382.28 511.46 L 389.30 508.11 L 396.27 504.09 L 403.20 499.38 L 410.09 493.93 L 416.96 487.70 L 423.82 480.62 L 430.67 472.65 L 431.89 488.69 L 428.00 494.70 L 423.83 500.15 L 419.39 505.08 L 414.67 509.51 L 409.65 513.48 L 404.32 516.98 L 398.66 520.05 L 392.65 522.67 L 386.25 524.85 L 379.44 526.59 L 372.19 527.86 L 364.44 528.64 L 356.16 528.91 L 348.29 524.27 L 345.54 519.00 Z" fill="#2361e9" fill-opacity="0.5204148" fill-rule="evenodd" group-id="1,2,5,12,21" id="路径-352" node-id="76" stroke="none" target-height="56.26065" target-width="86.34766" target-x="345.54028" target-y="472.65012"></path></g><g node-id="233"><path d="M 247.65 387.37 L 258.92 388.12 L 269.39 388.23 L 279.09 387.75 L 288.10 386.73 L 296.47 385.20 L 304.23 383.18 L 311.44 380.70 L 318.14 377.78 L 324.37 374.41 L 330.16 370.61 L 335.54 366.37 L 340.53 361.66 L 345.15 356.48 L 349.41 350.80 L 353.31 344.57 L 356.85 337.77 L 360.02 330.35 L 362.81 322.25 L 346.78 299.54 L 312.76 327.00 L 233.29 358.61 L 247.65 387.37 Z" fill="#3e7aff" fill-rule="evenodd" group-id="1,2,5,12,22" id="路径-402" node-id="77" stroke="none" target-height="88.68884" target-width="129.52145" target-x="233.28836" target-y="299.54034"></path></g><path d="M 233.29 374.08 L 245.16 374.43 L 256.17 374.20 L 266.37 373.45 L 275.81 372.20 L 284.55 370.50 L 292.64 368.36 L 300.12 365.82 L 307.04 362.88 L 313.44 359.57 L 319.36 355.88 L 324.82 351.82 L 329.85 347.38 L 334.48 342.54 L 338.72 337.30 L 342.57 331.63 L 346.05 325.49 L 349.15 318.86 L 351.86 311.70 L 354.18 303.97 L 318.56 268.38 L 248.26 273.57 L 242.68 282.83 L 238.07 291.30 L 234.33 299.06 L 231.38 306.15 L 229.13 312.64 L 227.53 318.57 L 226.49 324.00 L 225.90 329.62 L 225.76 335.67 L 226.10 342.21 L 226.98 349.27 L 228.43 356.90 L 230.51 365.15 L 233.29 374.08 Z" fill="#88a7ff" fill-rule="evenodd" group-id="1,2,5,12,23" id="路径-353" node-id="78" stroke="none" target-height="106.045135" target-width="128.41754" target-x="225.7575" target-y="268.3815"></path></g><path d="M 390.87 445.60 L 390.59 449.61 L 389.79 453.39 L 388.50 456.97 L 386.74 460.36 L 384.58 463.44 L 382.02 466.26 L 379.12 468.73 L 375.93 470.81 L 372.41 472.52 L 368.71 473.77 L 364.81 474.54 L 360.65 474.81 L 356.50 474.54 L 352.59 473.77 L 348.89 472.52 L 345.37 470.81 L 342.18 468.73 L 339.28 466.26 L 336.72 463.44 L 334.56 460.36 L 332.80 456.97 L 331.51 453.39 L 330.72 449.61 L 330.43 445.60 L 330.72 441.59 L 331.51 437.82 L 332.80 434.23 L 334.56 430.85 L 336.72 427.76 L 339.28 424.95 L 342.18 422.48 L 345.37 420.39 L 348.89 418.69 L 352.59 417.44 L 356.50 416.67 L 360.65 416.39 L 364.81 416.67 L 368.71 417.44 L 372.41 418.69 L 375.93 420.39 L 379.12 422.48 L 382.02 424.95 L 384.58 427.76 L 386.74 430.85 L 388.50 434.23 L 389.79 437.82 L 390.59 441.59 L 390.87 445.60 Z" fill="#255efd" fill-rule="evenodd" group-id="1,2,5" id="椭圆形" node-id="79" stroke="none" target-height="58.42453" target-width="60.44336" target-x="330.42944" target-y="416.38943"></path><path d="M 388.71 447.77 L 388.46 451.48 L 387.75 454.98 L 386.59 458.29 L 385.02 461.43 L 383.09 464.29 L 380.81 466.89 L 378.22 469.18 L 375.37 471.11 L 372.23 472.69 L 368.93 473.85 L 365.44 474.56 L 361.73 474.81 L 358.02 474.56 L 354.53 473.85 L 351.23 472.69 L 348.10 471.11 L 345.24 469.18 L 342.65 466.89 L 340.37 464.29 L 338.44 461.43 L 336.87 458.29 L 335.71 454.98 L 335.00 451.48 L 334.75 447.77 L 335.00 444.05 L 335.71 440.55 L 336.87 437.24 L 338.44 434.10 L 340.37 431.24 L 342.65 428.64 L 345.24 426.35 L 348.10 424.42 L 351.23 422.84 L 354.53 421.69 L 358.02 420.97 L 361.73 420.72 L 365.44 420.97 L 368.93 421.69 L 372.23 422.84 L 375.37 424.42 L 378.22 426.35 L 380.81 428.64 L 383.09 431.24 L 385.02 434.10 L 386.59 437.24 L 387.75 440.55 L 388.46 444.05 L 388.71 447.77 Z" fill="#376bff" fill-rule="evenodd" group-id="1,2,5" id="椭圆形备份-26" node-id="80" stroke="none" target-height="54.0968" target-width="53.967285" target-x="334.74683" target-y="420.71716"></path><path d="M 386.56 446.68 L 386.33 449.95 L 385.71 453.03 L 384.69 455.95 L 383.30 458.71 L 381.61 461.23 L 379.60 463.51 L 377.32 465.53 L 374.81 467.23 L 372.05 468.62 L 369.14 469.63 L 366.07 470.26 L 362.81 470.49 L 359.55 470.26 L 356.48 469.63 L 353.57 468.62 L 350.81 467.23 L 348.30 465.53 L 346.02 463.51 L 344.01 461.23 L 342.32 458.71 L 340.93 455.95 L 339.91 453.03 L 339.29 449.95 L 339.06 446.68 L 339.29 443.41 L 339.91 440.34 L 340.93 437.42 L 342.32 434.66 L 344.01 432.14 L 346.02 429.85 L 348.30 427.84 L 350.81 426.14 L 353.57 424.75 L 356.48 423.73 L 359.55 423.11 L 362.81 422.88 L 366.07 423.11 L 369.14 423.73 L 372.05 424.75 L 374.81 426.14 L 377.32 427.84 L 379.60 429.85 L 381.61 432.14 L 383.30 434.66 L 384.69 437.42 L 385.71 440.34 L 386.33 443.41 L 386.56 446.68 Z" fill="#1d36c4" fill-rule="evenodd" group-id="1,2,5" id="椭圆形备份-27" node-id="81" stroke="none" target-height="47.605194" target-width="47.49121" target-x="339.0642" target-y="422.88104"></path><path d="M 312.50 472.65 L 309.27 472.65 L 306.47 480.22 L 304.45 487.33 L 303.13 494.02 L 302.47 500.33 L 302.42 506.31 L 302.94 512.00 L 304.03 517.42 L 305.67 522.63 L 307.87 527.65 L 310.65 532.51 L 314.05 537.22 L 318.09 541.81 L 322.85 546.28 L 328.37 550.64 L 334.75 554.88 L 313.74 477.48 L 312.50 472.65 Z" fill="#1d36c4" fill-rule="evenodd" group-id="1,2,5" id="路径-406" node-id="82" stroke="none" target-height="82.22714" target-width="32.329773" target-x="302.41705" target-y="472.65012"></path><path d="M 312.62 472.65 L 309.58 479.69 L 307.30 486.35 L 305.74 492.67 L 304.83 498.70 L 304.53 504.46 L 304.81 509.99 L 305.66 515.33 L 307.07 520.52 L 309.05 525.58 L 311.63 530.53 L 314.83 535.41 L 318.71 540.22 L 323.32 544.98 L 328.73 549.69 L 335.02 554.35 L 336.87 554.84 L 338.08 554.80 L 338.86 554.41 L 339.37 553.67 L 339.59 552.44 L 339.33 548.84 L 339.17 546.03 L 339.15 542.33 L 339.41 538.41 L 340.11 533.97 L 340.85 531.01 L 341.91 527.97 L 343.30 524.84 L 344.99 521.88 L 347.14 518.94 L 349.79 516.02 L 352.74 513.42 L 356.33 510.94 L 360.65 508.58 L 312.62 472.65 Z" fill="#3575ff" fill-rule="evenodd" group-id="1,2,5" id="路径-351" node-id="83" stroke="none" target-height="82.191864" target-width="56.125946" target-x="304.52518" target-y="472.65012"></path><path d="M 408.14 416.39 L 414.91 417.05 L 421.12 418.21 L 426.84 419.86 L 432.09 421.97 L 436.94 424.52 L 441.41 427.53 L 445.54 431.01 L 449.34 434.99 L 452.82 439.49 L 455.99 444.56 L 458.84 450.25 L 461.36 456.63 L 463.52 463.75 L 464.20 469.45 L 464.20 473.38 L 463.75 475.98 L 463.01 477.62 L 462.04 478.60 L 460.83 479.08 L 459.26 479.06 L 457.13 478.40 L 454.23 476.79 L 450.91 474.86 L 447.37 473.24 L 443.59 471.94 L 439.72 470.96 L 435.86 470.33 L 432.00 470.04 L 428.14 470.10 L 424.55 470.50 L 421.20 471.25 L 417.98 472.40 L 415.24 473.88 L 412.92 475.70 L 408.14 416.39 Z" fill="#1d36c4" fill-rule="evenodd" group-id="1,2,5" id="路径-407备份" node-id="84" stroke="none" target-height="62.69278" target-width="56.058502" target-x="408.14233" target-y="416.38943"></path><path d="M 408.14 418.55 L 414.80 419.19 L 420.92 420.35 L 426.55 421.99 L 431.75 424.10 L 436.55 426.67 L 440.98 429.70 L 445.08 433.22 L 448.86 437.25 L 452.34 441.82 L 455.51 446.99 L 458.37 452.80 L 460.90 459.33 L 463.08 466.64 L 464.05 472.18 L 464.26 475.95 L 463.97 478.41 L 463.35 479.94 L 462.50 480.84 L 461.39 481.26 L 459.88 481.21 L 457.78 480.50 L 454.84 478.82 L 451.50 476.88 L 447.90 475.29 L 444.03 474.05 L 440.05 473.17 L 436.07 472.66 L 432.08 472.50 L 428.08 472.69 L 424.37 473.24 L 420.91 474.11 L 417.59 475.38 L 414.80 476.95 L 412.46 478.82 L 408.14 418.55 Z" fill="#3575ff" fill-rule="evenodd" group-id="1,2,5" id="路径-407" node-id="85" stroke="none" target-height="62.709167" target-width="56.12027" target-x="408.14233" target-y="418.55328"></path></g><path d="M 431.00 103.00 L 460.00 144.80 L 442.85 144.80 L 442.85 191.00 L 418.31 191.00 L 418.31 144.80 L 402.00 144.80 L 431.00 103.00 Z" fill="#ff5050" fill-rule="evenodd" group-id="1,2" id="形状结合" node-id="86" stroke="none" target-height="88" target-width="58" target-x="402" target-y="103"></path><path d="M 1278.50 416.00 L 1299.00 443.44 L 1287.61 443.44 L 1287.61 473.00 L 1269.39 473.00 L 1269.39 443.44 L 1258.00 443.44 L 1278.50 416.00 Z" fill="#ff5050" fill-rule="evenodd" group-id="1,2" id="形状结合备份-5" node-id="87" stroke="none" target-height="57" target-width="41" target-x="1258" target-y="416"></path><path d="M 167.50 285.00 L 188.00 312.44 L 176.61 312.44 L 176.61 342.00 L 158.39 342.00 L 158.39 312.44 L 147.00 312.44 L 167.50 285.00 Z" fill="#57e4c3" fill-rule="evenodd" group-id="1,2" id="形状结合备份-6" node-id="88" stroke="none" target-height="57" target-width="41" target-x="147" target-y="285"></path><path d="M 656.00 734.81 L 683.92 733.21 L 709.38 731.23 L 732.52 728.93 L 753.49 726.33 L 772.45 723.46 L 789.52 720.37 L 804.85 717.09 L 818.56 713.63 L 830.78 710.04 L 841.62 706.33 L 851.20 702.52 L 859.63 698.64 L 867.01 694.71 L 875.34 690.25 L 883.22 686.68 L 890.71 683.92 L 897.83 681.92 L 904.62 680.61 L 911.11 679.96 L 917.36 679.91 L 923.38 680.46 L 929.21 681.60 L 934.89 683.30 L 940.43 685.61 L 945.88 688.52 L 951.23 692.09 L 956.52 696.34 L 961.76 701.35 L 963.12 698.29 L 964.89 695.60 L 967.10 693.22 L 969.78 691.14 L 972.99 689.35 L 976.81 687.86 L 981.35 686.71 L 986.69 685.95 L 992.98 685.64 L 993.73 680.13 L 994.88 675.66 L 996.37 672.06 L 998.15 669.19 L 1000.20 666.95 L 1002.55 665.24 L 1005.22 664.03 L 1008.29 663.31 L 1012.12 663.00 L 1015.79 663.19 L 1019.35 663.87 L 1022.83 665.02 L 1026.25 666.69 L 1029.64 668.90 L 1033.01 671.72 L 1037.64 669.72 L 1041.92 668.40 L 1045.88 667.67 L 1049.58 667.48 L 1053.05 667.78 L 1056.35 668.57 L 1059.51 669.84 L 1062.57 671.61 L 1065.53 673.94 L 1067.86 676.35 L 1069.48 678.72 L 1070.48 681.06 L 1070.94 683.43 L 1070.88 685.89 L 1070.27 688.48 L 1069.04 691.26 L 1067.06 694.31 L 1064.19 697.65 L 1060.25 701.35 L 1065.70 701.26 L 1070.26 701.69 L 1074.05 702.56 L 1077.19 703.81 L 1079.78 705.39 L 1081.90 707.31 L 1083.60 709.58 L 1084.41 711.21 L 1084.87 713.01 L 1084.99 715.02 L 1084.69 717.00 L 1083.87 719.20 L 1082.42 721.68 L 1080.61 723.92 L 1077.99 726.40 L 1074.37 729.16 L 1070.54 731.57 L 1065.59 734.19 L 1059.32 737.02 L 1052.93 739.50 L 1045.13 742.11 L 1035.73 744.84 L 1026.26 747.24 L 1015.10 749.70 L 1002.08 752.20 L 988.06 754.18 L 972.45 755.80 L 955.11 757.00 L 935.93 757.76 L 914.77 758.00 L 891.47 757.68 L 865.91 756.75 L 837.92 755.14 L 807.35 752.80 L 774.04 749.66 L 737.83 745.66 L 698.54 740.73 L 656.00 734.81 Z" fill="#a8e1ff" fill-rule="evenodd" group-id="1,2" id="路径-411" node-id="89" stroke="none" target-height="94.99652" target-width="428.98547" target-x="656" target-y="663.0028"></path><path d="M 539.00 762.00 L 567.13 749.75 L 583.54 742.29 L 600.27 734.21 L 614.85 726.61 L 627.48 719.45 L 636.89 713.57 L 645.13 707.85 L 652.28 702.29 L 658.46 696.87 L 661.55 689.17 L 664.19 683.70 L 666.16 680.43 L 668.07 677.90 L 669.93 676.00 L 672.05 674.40 L 674.35 673.16 L 676.87 672.29 L 680.98 671.51 L 686.20 671.13 L 699.11 671.07 L 700.21 667.23 L 701.76 663.85 L 703.73 660.86 L 706.15 658.23 L 709.05 655.93 L 712.50 653.95 L 716.55 652.30 L 719.48 651.54 L 722.10 651.20 L 724.47 651.23 L 727.90 651.82 L 730.80 652.88 L 733.40 654.32 L 735.44 655.82 L 737.19 657.42 L 738.30 658.64 L 739.27 659.89 L 742.16 656.95 L 744.90 654.85 L 747.52 653.45 L 750.06 652.66 L 752.56 652.40 L 755.09 652.68 L 757.69 653.50 L 758.42 649.42 L 759.55 645.95 L 761.03 643.02 L 762.85 640.55 L 765.02 638.48 L 767.58 636.78 L 770.57 635.45 L 774.07 634.49 L 777.67 634.03 L 780.98 634.10 L 784.05 634.67 L 786.93 635.72 L 789.65 637.27 L 792.25 639.36 L 794.75 642.05 L 797.14 645.44 L 800.66 643.59 L 803.76 642.50 L 806.52 642.04 L 809.00 642.12 L 811.28 642.71 L 813.42 643.79 L 815.45 645.44 L 817.15 647.45 L 818.25 649.54 L 818.84 651.75 L 818.92 654.16 L 818.45 656.81 L 817.34 659.79 L 815.45 663.18 L 817.15 664.66 L 818.26 666.24 L 818.86 667.98 L 818.98 669.92 L 818.58 672.17 L 817.52 674.80 L 818.17 677.99 L 818.37 680.93 L 818.15 683.64 L 817.23 687.59 L 815.80 691.06 L 814.00 694.24 L 812.17 696.87 L 810.96 698.35 L 808.06 701.34 L 804.39 704.59 L 798.62 708.94 L 794.39 711.75 L 789.09 714.87 L 782.58 718.33 L 775.95 721.47 L 768.03 724.76 L 758.69 728.20 L 749.24 731.23 L 738.29 734.24 L 725.68 737.22 L 713.01 739.71 L 698.61 742.01 L 682.31 744.07 L 647.39 747.58 L 611.87 751.73 L 575.74 756.53 L 539.00 762.00 Z" fill="#96dbff" fill-rule="evenodd" group-id="1,2" id="路径-412" node-id="90" stroke="none" target-height="127.96698" target-width="279.9843" target-x="539" target-y="634.033"></path><path d="M 542.00 758.00 L 609.97 742.70 L 663.66 730.09 L 705.20 719.82 L 736.56 711.56 L 759.55 704.99 L 775.78 699.85 L 786.71 695.88 L 787.96 695.03 L 788.73 693.78 L 789.19 692.25 L 789.53 690.38 L 789.90 688.43 L 790.48 686.37 L 791.41 684.40 L 792.94 682.47 L 794.22 681.38 L 795.97 680.34 L 798.28 679.37 L 801.76 678.48 L 804.34 678.30 L 806.68 678.61 L 808.46 679.23 L 810.05 680.08 L 811.31 680.94 L 812.50 681.74 L 813.53 682.23 L 814.57 682.34 L 815.77 681.88 L 818.76 680.23 L 821.53 679.01 L 826.75 677.00 L 829.08 675.89 L 831.11 674.49 L 832.28 673.35 L 833.34 671.91 L 834.28 670.09 L 835.75 667.27 L 837.70 664.61 L 839.25 663.03 L 840.98 661.66 L 842.93 660.49 L 845.01 659.62 L 847.30 659.07 L 849.83 658.86 L 852.37 659.04 L 855.17 659.68 L 858.29 660.85 L 859.62 654.84 L 861.42 649.47 L 863.64 644.65 L 866.29 640.34 L 869.37 636.48 L 872.90 633.05 L 876.89 630.01 L 881.41 627.37 L 886.50 625.13 L 892.22 623.29 L 898.66 621.90 L 905.89 621.00 L 911.57 621.20 L 916.35 621.86 L 920.37 622.91 L 923.73 624.29 L 926.52 625.98 L 928.82 627.96 L 930.69 630.26 L 932.16 632.90 L 933.23 635.94 L 933.88 639.46 L 934.06 643.53 L 933.70 648.26 L 932.71 653.73 L 930.97 660.08 L 934.37 661.56 L 937.01 663.25 L 939.01 665.13 L 940.47 667.20 L 941.44 669.51 L 941.94 672.10 L 941.93 675.06 L 941.33 678.48 L 940.04 682.44 L 937.90 687.05 L 936.03 690.93 L 933.59 694.75 L 930.54 698.53 L 926.82 702.28 L 922.36 706.02 L 917.08 709.73 L 910.87 713.41 L 903.65 717.07 L 894.21 720.93 L 883.12 724.78 L 870.19 728.59 L 855.22 732.33 L 838.00 735.98 L 818.31 739.49 L 795.92 742.84 L 770.58 745.98 L 742.06 748.87 L 710.08 751.46 L 674.37 753.73 L 634.65 755.60 L 590.63 757.04 L 542.00 758.00 Z" fill="#e7fdff" fill-rule="evenodd" group-id="1,2" id="路径-413" node-id="91" stroke="none" target-height="136.99725" target-width="399.93866" target-x="542" target-y="621.00275"></path><path d="M 660.17 742.86 L 662.90 738.50 L 665.67 735.00 L 668.49 732.24 L 671.37 730.12 L 674.32 728.59 L 677.37 727.59 L 680.57 727.10 L 683.96 727.13 L 687.59 727.72 L 691.52 728.92 L 695.79 730.81 L 700.47 733.51 L 710.40 730.54 L 719.55 728.37 L 727.98 726.93 L 735.76 726.17 L 742.93 726.02 L 749.55 726.43 L 755.68 727.36 L 761.36 728.79 L 766.63 730.69 L 771.55 733.06 L 776.13 735.90 L 780.40 739.23 L 784.40 743.06 L 788.12 747.44 L 791.57 752.41 L 800.61 749.76 L 808.80 747.96 L 816.22 746.92 L 822.94 746.55 L 829.03 746.78 L 834.57 747.57 L 839.61 748.87 L 844.21 750.67 L 848.43 752.94 L 852.29 755.70 L 855.84 758.97 L 859.08 762.79 L 862.03 767.21 L 864.68 772.30 L 869.45 771.80 L 873.37 771.84 L 876.57 772.34 L 879.17 773.21 L 881.29 774.43 L 883.00 775.97 L 884.35 777.87 L 885.36 780.18 L 886.00 783.00 L 627.00 778.41 L 630.00 770.73 L 633.10 764.27 L 636.26 758.91 L 639.47 754.50 L 642.73 750.93 L 646.03 748.10 L 649.40 745.93 L 652.86 744.36 L 656.44 743.34 L 660.17 742.86 Z" fill="#c7faff" fill-rule="evenodd" group-id="1,2" id="路径-414" node-id="92" stroke="none" target-height="56.983765" target-width="259" target-x="627" target-y="726.01624"></path><path d="M 1140.83 247.35 L 1142.30 249.01 L 1143.88 250.38 L 1145.57 251.47 L 1151.77 249.96 L 1158.20 249.04 L 1164.89 248.71 L 1170.40 248.93 L 1175.73 249.56 L 1180.91 250.59 L 1182.70 249.35 L 1184.22 247.53 L 1185.18 246.61 L 1186.54 246.00 L 1188.41 245.76 L 1191.41 245.99 L 1194.91 246.84 L 1198.37 248.15 L 1201.57 249.80 L 1205.92 252.31 L 1207.84 253.60 L 1209.36 254.96 L 1210.48 256.57 L 1211.08 258.51 L 1211.14 259.90 L 1210.90 261.60 L 1210.26 263.71 L 1209.68 265.41 L 1213.46 268.95 L 1216.93 272.75 L 1220.10 276.79 L 1222.98 281.11 L 1225.52 285.63 L 1227.69 290.33 L 1229.51 295.24 L 1230.96 300.37 L 1233.88 302.04 L 1236.92 303.38 L 1238.61 304.28 L 1240.04 305.62 L 1241.22 307.47 L 1242.16 309.96 L 1242.78 313.24 L 1243.00 317.53 L 1242.70 323.02 L 1242.20 326.39 L 1241.23 329.26 L 1239.82 331.73 L 1237.94 333.84 L 1235.56 335.64 L 1232.59 337.13 L 1228.91 338.28 L 1227.02 342.99 L 1224.82 347.48 L 1222.30 351.76 L 1219.46 355.86 L 1216.32 359.74 L 1212.93 363.35 L 1209.28 366.71 L 1205.36 369.83 L 1201.23 372.64 L 1196.90 375.14 L 1192.37 377.33 L 1187.61 379.21 L 1186.79 381.04 L 1185.43 382.95 L 1183.60 384.65 L 1180.90 386.31 L 1178.89 387.18 L 1176.35 387.96 L 1173.20 388.62 L 1169.04 389.00 L 1165.41 388.75 L 1162.21 387.95 L 1159.37 386.62 L 1156.83 384.75 L 1154.55 382.29 L 1149.05 381.22 L 1143.75 379.75 L 1138.65 377.86 L 1133.72 375.58 L 1129.03 372.94 L 1124.59 369.95 L 1122.04 370.85 L 1119.67 371.34 L 1117.45 371.47 L 1115.24 371.29 L 1113.14 370.84 L 1111.16 370.12 L 1108.36 368.61 L 1105.78 366.68 L 1102.95 363.83 L 1100.73 360.74 L 1099.58 358.51 L 1098.89 356.39 L 1098.58 354.37 L 1098.73 352.39 L 1099.41 350.65 L 1100.65 349.06 L 1101.81 347.73 L 1102.69 346.13 L 1103.31 344.20 L 1101.44 339.83 L 1099.88 335.30 L 1098.64 330.61 L 1097.74 325.84 L 1097.19 320.94 L 1097.00 315.89 L 1097.26 309.99 L 1098.01 304.29 L 1099.22 298.77 L 1100.91 293.37 L 1103.01 288.22 L 1105.52 283.28 L 1108.43 278.57 L 1111.70 274.14 L 1115.32 269.99 L 1115.16 267.93 L 1114.74 266.10 L 1114.09 264.48 L 1113.22 262.57 L 1112.94 260.67 L 1113.22 258.71 L 1114.12 256.59 L 1115.79 254.26 L 1118.45 251.65 L 1122.36 248.71 L 1126.52 246.21 L 1129.96 244.74 L 1132.83 244.08 L 1135.25 244.07 L 1137.34 244.61 L 1139.18 245.68 L 1140.83 247.35 Z" fill="#57e4c3" fill-rule="evenodd" group-id="1,2,6" id="形状结合" node-id="94" stroke="none" target-height="144.93045" target-width="145.99963" target-x="1097" target-y="244.06723"></path><path d="M 1124.98 253.53 L 1122.89 254.79 L 1121.23 256.03 L 1119.89 257.39 L 1119.23 258.58 L 1119.12 259.37 L 1119.36 260.12 L 1120.00 260.88 L 1120.93 261.37 L 1122.30 261.58 L 1124.30 261.37 L 1127.16 260.56 L 1131.14 258.90 L 1134.33 256.65 L 1136.01 254.96 L 1136.72 253.69 L 1136.78 252.68 L 1136.34 251.80 L 1135.53 251.12 L 1134.57 250.72 L 1133.40 250.59 L 1131.53 250.81 L 1129.35 251.46 L 1127.18 252.39 L 1124.98 253.53 Z" fill="#098266" fill-rule="evenodd" group-id="1,2,6" id="路径-420" node-id="95" stroke="none" target-height="10.984146" target-width="17.663086" target-x="1119.1196" target-y="250.59105"></path><path d="M 1231.32 307.71 L 1229.07 307.92 L 1227.99 308.30 L 1226.99 309.03 L 1226.22 310.11 L 1225.60 311.95 L 1225.33 314.17 L 1225.41 317.61 L 1225.82 320.84 L 1226.36 323.07 L 1226.97 324.54 L 1227.84 325.86 L 1228.69 326.68 L 1229.55 327.13 L 1230.99 327.45 L 1232.34 327.48 L 1233.14 327.28 L 1233.86 326.77 L 1234.55 325.87 L 1235.31 324.23 L 1235.90 322.03 L 1236.25 319.69 L 1236.36 317.23 L 1236.19 314.80 L 1235.69 312.58 L 1234.89 310.55 L 1233.90 309.05 L 1233.08 308.28 L 1232.23 307.85 L 1231.32 307.71 Z" fill="#098266" fill-rule="evenodd" group-id="1,2,6" id="路径-421" node-id="96" stroke="none" target-height="19.763977" target-width="11.037598" target-x="1225.326" target-y="307.7137"></path><path d="M 1104.81 352.03 L 1104.29 352.64 L 1103.78 353.67 L 1103.64 354.91 L 1104.16 356.86 L 1104.84 358.16 L 1106.11 359.88 L 1108.18 362.14 L 1111.37 364.96 L 1113.45 366.31 L 1115.37 366.99 L 1116.64 366.94 L 1117.73 366.44 L 1118.64 365.66 L 1119.01 365.02 L 1119.12 364.18 L 1118.92 363.04 L 1118.22 361.32 L 1117.03 359.30 L 1115.59 357.35 L 1113.97 355.51 L 1112.18 353.96 L 1110.34 352.84 L 1108.44 352.06 L 1106.88 351.70 L 1105.49 351.71 L 1104.81 352.03 Z" fill="#098266" fill-rule="evenodd" group-id="1,2,6" id="路径-422" node-id="97" stroke="none" target-height="15.28891" target-width="15.484009" target-x="1103.6398" target-y="351.70438"></path><path d="M 1150.09 305.52 L 1149.87 307.92 L 1149.26 310.13 L 1148.28 312.17 L 1146.96 314.02 L 1145.38 315.59 L 1143.52 316.90 L 1141.46 317.87 L 1139.24 318.47 L 1136.82 318.70 L 1134.39 318.47 L 1132.17 317.87 L 1130.12 316.90 L 1128.26 315.59 L 1126.68 314.02 L 1125.36 312.17 L 1124.38 310.13 L 1123.77 307.92 L 1123.55 305.52 L 1123.77 303.11 L 1124.38 300.90 L 1125.36 298.86 L 1126.68 297.01 L 1128.26 295.44 L 1130.12 294.13 L 1132.17 293.16 L 1134.39 292.56 L 1136.82 292.33 L 1139.24 292.56 L 1141.46 293.16 L 1143.52 294.13 L 1145.38 295.44 L 1146.96 297.01 L 1148.28 298.86 L 1149.26 300.90 L 1149.87 303.11 L 1150.09 305.52 Z" fill="#098266" fill-rule="evenodd" group-id="1,2,6" id="椭圆形" node-id="98" stroke="none" target-height="26.363617" target-width="26.545532" target-x="1123.5454" target-y="292.33334"></path><path d="M 1183.27 292.33 L 1185.72 292.17 L 1187.94 291.73 L 1189.97 291.01 L 1191.85 289.99 L 1193.43 288.73 L 1194.73 287.21 L 1195.70 285.48 L 1196.31 283.50 L 1196.55 281.21 L 1196.31 278.92 L 1195.70 276.97 L 1194.73 275.28 L 1193.43 273.81 L 1191.86 272.59 L 1189.97 271.62 L 1187.94 270.93 L 1185.72 270.51 L 1183.27 270.36 L 1180.83 270.51 L 1178.60 270.93 L 1176.57 271.62 L 1174.69 272.59 L 1173.11 273.81 L 1171.81 275.28 L 1170.84 276.97 L 1170.23 278.92 L 1170.00 281.21 L 1170.23 283.50 L 1170.84 285.48 L 1171.81 287.21 L 1173.12 288.73 L 1174.69 289.99 L 1176.57 291.01 L 1178.61 291.73 L 1180.83 292.17 L 1183.27 292.33 Z" fill="#098266" fill-rule="evenodd" group-id="1,2,6" id="椭圆形备份-28" node-id="99" stroke="none" target-height="21.969696" target-width="26.54541" target-x="1170" target-y="270.36365"></path><path d="M 1196.55 330.78 L 1196.23 334.19 L 1195.37 337.31 L 1193.98 340.21 L 1192.11 342.82 L 1189.87 345.05 L 1187.23 346.90 L 1184.32 348.29 L 1181.18 349.14 L 1177.74 349.45 L 1174.31 349.14 L 1171.16 348.29 L 1168.25 346.90 L 1165.61 345.05 L 1163.37 342.82 L 1161.51 340.21 L 1160.12 337.31 L 1159.26 334.19 L 1158.94 330.78 L 1159.26 327.37 L 1160.12 324.25 L 1161.51 321.36 L 1163.37 318.74 L 1165.61 316.51 L 1168.25 314.66 L 1171.16 313.28 L 1174.31 312.42 L 1177.74 312.11 L 1181.18 312.42 L 1184.32 313.28 L 1187.23 314.66 L 1189.87 316.51 L 1192.11 318.74 L 1193.98 321.36 L 1195.37 324.25 L 1196.23 327.37 L 1196.55 330.78 Z" fill="#098266" fill-rule="evenodd" group-id="1,2,6" id="椭圆形" node-id="100" stroke="none" target-height="37.34845" target-width="37.605957" target-x="1158.9395" target-y="312.10608"></path><path d="M 201.41 482.32 L 202.30 483.25 L 203.30 483.94 L 207.02 483.13 L 210.97 482.85 L 214.23 483.04 L 217.33 483.59 L 218.05 483.10 L 218.65 482.39 L 219.28 481.89 L 220.32 481.69 L 221.50 481.78 L 222.90 482.12 L 224.27 482.63 L 225.54 483.28 L 227.78 484.59 L 228.65 485.32 L 229.19 486.18 L 229.35 487.21 L 228.99 488.75 L 228.76 489.42 L 231.64 492.30 L 234.05 495.59 L 235.36 497.97 L 236.42 500.49 L 237.22 503.16 L 239.59 504.34 L 240.50 504.89 L 241.21 505.79 L 241.73 507.16 L 241.99 509.18 L 241.88 512.06 L 241.55 513.86 L 240.87 515.30 L 239.82 516.46 L 238.37 517.39 L 236.41 518.06 L 234.77 521.69 L 232.66 524.96 L 230.05 527.92 L 227.05 530.47 L 223.71 532.54 L 220.00 534.15 L 219.46 535.21 L 218.37 536.32 L 216.84 537.16 L 214.27 537.85 L 211.87 537.98 L 209.90 537.59 L 208.26 536.72 L 206.87 535.36 L 203.58 534.65 L 200.51 533.61 L 197.65 532.23 L 194.96 530.51 L 193.44 530.98 L 192.08 531.12 L 190.83 530.96 L 189.06 530.30 L 187.49 529.23 L 186.36 528.11 L 185.48 526.89 L 184.87 525.59 L 184.63 524.39 L 184.80 523.26 L 185.45 522.30 L 186.10 521.47 L 186.51 520.39 L 185.14 516.90 L 184.31 513.21 L 184.00 509.26 L 184.23 505.79 L 184.89 502.51 L 185.95 499.39 L 187.39 496.43 L 189.17 493.71 L 191.28 491.22 L 191.14 490.04 L 190.79 489.05 L 190.37 488.00 L 190.40 486.94 L 190.90 485.78 L 192.04 484.44 L 194.07 482.85 L 196.30 481.59 L 198.02 481.06 L 199.37 481.05 L 200.47 481.47 L 201.41 482.32 Z" fill="#d895ff" fill-rule="evenodd" group-id="1,2,7" id="形状结合" node-id="102" stroke="none" target-height="56.927277" target-width="57.98697" target-x="184" target-y="481.0524"></path><path d="M 195.83 485.66 L 194.52 486.32 L 193.70 486.93 L 193.36 487.56 L 193.73 488.12 L 194.48 488.34 L 195.91 488.22 L 198.44 487.46 L 200.35 486.28 L 200.83 485.58 L 200.64 485.08 L 199.81 484.71 L 198.58 484.75 L 197.24 485.11 L 195.83 485.66 Z" fill="#af0db9" fill-rule="evenodd" group-id="1,2,7" id="路径-420" node-id="103" stroke="none" target-height="3.6336975" target-width="7.476776" target-x="193.35527" target-y="484.71082"></path><path d="M 236.55 506.74 L 235.54 506.90 L 235.11 507.20 L 234.74 507.86 L 234.55 508.76 L 234.55 510.42 L 234.78 512.08 L 235.08 513.00 L 235.52 513.67 L 235.95 513.96 L 236.90 514.09 L 237.44 513.79 L 237.91 512.86 L 238.17 511.66 L 238.26 510.28 L 238.12 508.93 L 237.77 507.82 L 237.19 506.99 L 236.55 506.74 Z" fill="#af0db9" fill-rule="evenodd" group-id="1,2,7" id="路径-421" node-id="104" stroke="none" target-height="7.351593" target-width="3.70784" target-x="234.55022" target-y="506.74252"></path><path d="M 188.17 523.43 L 187.79 524.01 L 187.74 524.46 L 187.93 525.16 L 188.38 525.91 L 189.39 527.05 L 191.08 528.43 L 191.95 528.78 L 192.68 528.70 L 193.18 528.31 L 193.35 527.73 L 193.02 526.73 L 192.36 525.70 L 191.49 524.67 L 190.48 523.89 L 189.51 523.45 L 188.58 523.29 L 188.17 523.43 Z" fill="#af0db9" fill-rule="evenodd" group-id="1,2,7" id="路径-422" node-id="105" stroke="none" target-height="5.493469" target-width="5.6056213" target-x="187.74316" target-y="523.2915"></path><path d="M 204.58 504.90 L 204.37 506.40 L 203.82 507.68 L 202.94 508.80 L 201.80 509.67 L 200.49 510.21 L 198.97 510.42 L 197.44 510.21 L 196.13 509.67 L 195.00 508.80 L 194.12 507.68 L 193.57 506.40 L 193.35 504.90 L 193.57 503.41 L 194.12 502.12 L 195.00 501.00 L 196.13 500.14 L 197.44 499.60 L 198.97 499.39 L 200.49 499.60 L 201.80 500.14 L 202.94 501.00 L 203.82 502.12 L 204.37 503.41 L 204.58 504.90 Z" fill="#af0db9" fill-rule="evenodd" group-id="1,2,7" id="椭圆形" node-id="106" stroke="none" target-height="11.032257" target-width="11.2258" target-x="193.35484" target-y="499.3871"></path><path d="M 217.68 499.39 L 219.23 499.23 L 220.53 498.82 L 221.65 498.16 L 222.52 497.25 L 223.07 496.13 L 223.29 494.73 L 223.07 493.34 L 222.52 492.24 L 221.65 491.36 L 220.54 490.73 L 219.23 490.34 L 217.68 490.19 L 216.12 490.34 L 214.82 490.73 L 213.71 491.36 L 212.83 492.24 L 212.29 493.34 L 212.06 494.73 L 212.28 496.13 L 212.83 497.25 L 213.71 498.16 L 214.82 498.82 L 216.13 499.23 L 217.68 499.39 Z" fill="#af0db9" fill-rule="evenodd" group-id="1,2,7" id="椭圆形备份-28" node-id="107" stroke="none" target-height="9.1935425" target-width="11.2258" target-x="212.06451" target-y="490.19354"></path><path d="M 223.29 515.94 L 223.02 517.90 L 222.27 519.65 L 221.10 521.13 L 219.58 522.29 L 217.81 523.02 L 215.81 523.29 L 213.80 523.02 L 212.03 522.29 L 210.51 521.13 L 209.34 519.65 L 208.59 517.90 L 208.32 515.94 L 208.59 513.97 L 209.34 512.22 L 210.51 510.74 L 212.03 509.58 L 213.80 508.85 L 215.81 508.58 L 217.81 508.85 L 219.58 509.58 L 221.10 510.74 L 222.27 512.22 L 223.02 513.97 L 223.29 515.94 Z" fill="#af0db9" fill-rule="evenodd" group-id="1,2,7" id="椭圆形" node-id="108" stroke="none" target-height="14.709686" target-width="14.967728" target-x="208.32259" target-y="508.58066"></path></g></g></svg>